<?xml version="1.0" standalone="no"?>
<!DOCTYPE svg PUBLIC "-//W3C//DTD SVG 1.1//EN" "http://www.w3.org/Graphics/SVG/1.1/DTD/svg11.dtd">
<svg xmlns="http://www.w3.org/2000/svg">
<defs >
<font id="DancingScript" horiz-adv-x="467" ><font-face
    font-family="Dancing Script"
    units-per-em="1000"
    panose-1="3 8 6 0 4 5 7 0 13 0"
    ascent="920"
    descent="-280"
    alphabetic="0" />
<glyph unicode=" " glyph-name="space" horiz-adv-x="259" />
<glyph unicode="!" glyph-name="exclam" horiz-adv-x="260" d="M-21 17Q-21 33 -2 45T37 58Q63 58 63 34Q63 19 47 5T11 -10Q-21 -10 -21 17ZM40 103Q40 150 95 293L134 394L172 488Q196 547 212 580L249 650Q269 687 285 703T314 720Q322 720 328 714T334 697Q334
657 217 424T40 103Z" />
<glyph unicode="&quot;" glyph-name="quotedbl" horiz-adv-x="245" d="M131 613Q131 646 151 683T192 720Q202 720 209 712T217 692Q208 683 200 673T187 654T176 634T166 615L156 595Q149 581 148 576Q131 586 131 613ZM251 613Q251 646 271 683T312 720Q322
720 329 712T337 692Q328 683 320 673T307 654T295 634L286 615L277 595Q270 581 268 576Q251 586 251 613Z" />
<glyph unicode="#" glyph-name="numbersign" horiz-adv-x="668" d="M9 155Q14 220 225 225Q234 271 239 289Q115 280 103 279L46 274Q51 338 251 343L289 531Q311 643 318 675Q321 687 323 693T336 708T363 720Q360 707 350 652L323 508L292 344H296Q340 344 420
340L488 675Q491 687 493 693T506 708T533 720Q530 707 520 650L492 504L460 338Q487 337 529 334T604 329T662 327Q625 295 561 295Q539 295 503 295T452 294Q438 223 437 218Q612 208 624 208Q587 176 524 176Q457 176 428 175Q413 99 402 53T377 -39T349 -109T315
-147T272 -162Q318 -106 383 172H257L235 70Q227 33 215 -11T193 -79T169 -123T139 -153T102 -162Q148 -106 212 170Q148 167 65 160L9 155ZM268 225Q314 225 394 221L410 293Q355 293 281 291L268 225Z" />
<glyph unicode="$" glyph-name="dollar" horiz-adv-x="531" d="M1 95Q1 157 41 191T129 226Q74 166 74 93Q74 42 105 12T194 -24Q226 84 266 263Q232 283 215 294T174 327T140 375T129 433Q129 514 193 576T346 652Q346 654 349 666T354 683T361 697T374 711T396
720Q389 685 384 655Q447 655 472 628T497 551Q497 472 449 390Q432 394 423 405T414 432T432 503T451 582Q451 631 379 631L320 319Q353 301 372 289T415 255T450 206T461 143Q461 58 395 5T235 -56Q195 -162 135 -162Q157 -134 184 -56Q105 -51 53 -13T1 95ZM192
458Q192 417 215 391T283 339L341 627Q276 613 234 563T192 458ZM245 -24Q313 -17 352 20T392 113Q392 187 304 241Q260 21 245 -24Z" />
<glyph unicode="%" glyph-name="percent" horiz-adv-x="698" d="M78 -87Q145 -20 298 255T508 675Q513 690 541 705T592 720Q573 672 448 433T263 97Q206 6 162 -40T78 -87ZM98 455Q98 528 140 598T243 669Q281 669 304 641T327 565Q327 494 284 421T180 347Q140
347 119 378T98 455ZM153 447Q153 385 186 385Q220 385 247 448T275 573Q275 633 243 633Q203 633 178 569T153 447ZM421 108Q421 181 463 251T566 322Q604 322 627 294T650 218Q650 147 607 74T503 0Q463 0 442 31T421 108ZM476 101Q476 38 509 38Q543 38 570
101T598 226Q598 286 566 286Q526 286 501 223T476 101Z" />
<glyph unicode="&amp;" glyph-name="ampersand" horiz-adv-x="616" d="M-3 95Q-3 188 73 266T256 354Q180 417 180 512Q180 594 239 656T387 719Q496 719 496 613Q496 558 471 509T420 460Q398 460 383 492Q465 564 465 629Q465 661 448 680T397 699Q330 699 292
640T253 495Q253 394 311 344Q215 328 153 252T90 92Q90 35 121 -9T218 -53Q322 -53 409 44T510 264Q465 262 403 250L379 245Q382 315 483 315Q516 315 567 307T636 298Q621 266 594 266Q571 265 536 265Q522 126 420 20T192 -87Q104 -87 51 -35T-3 95Z" />
<glyph unicode="&apos;" glyph-name="quotesingle" horiz-adv-x="125" d="M131 613Q131 646 151 683T192 720Q202 720 209 712T217 692Q208 683 200 673T187 654T176 634T166 615L156 595Q149 581 148 576Q131 586 131 613Z" />
<glyph unicode="(" glyph-name="parenleft" horiz-adv-x="258" d="M57 189Q57 280 80 366T139 514T217 624T298 696T364 720Q239 631 177 479T115 162Q115 12 162 -66Q156 -80 142 -87Q105 -65 81 13T57 189Z" />
<glyph unicode=")" glyph-name="parenright" horiz-adv-x="268" d="M-61 -63Q51 16 123 156T196 475Q196 622 125 720Q171 708 209 631T247 435Q247 329 213 228T130 60T36 -46T-39 -87Q-51 -84 -61 -63Z" />
<glyph unicode="*" glyph-name="asterisk" horiz-adv-x="391" d="M116 572Q135 573 233 577Q185 656 185 692Q185 702 199 718Q242 626 267 588Q270 594 277 608L286 630Q289 637 295 648T304 665T313 680T324 694L335 705Q341 710 348 713T362 718Q355 699 329
647T295 577Q340 580 347 580Q407 580 433 551L303 539Q306 534 316 519T331 495T343 472T352 441T355 404Q338 424 266 532Q235 472 211 440T163 408Q175 425 185 442T200 471T215 504T231 539H205Q124 539 116 572Z" />
<glyph unicode="+" glyph-name="plus" horiz-adv-x="408" d="M3 144Q19 190 162 193V243Q162 306 191 346Q199 277 200 193Q288 192 360 184Q320 155 257 155H200Q197 6 151 -11Q162 58 162 155Q70 155 3 144Z" />
<glyph unicode="," glyph-name="comma" horiz-adv-x="196" d="M-10 -51Q-10 -18 10 19T51 56Q61 56 68 48T76 28Q67 19 59 9T46 -10T35 -30T25 -49L15 -69Q8 -83 7 -88Q-10 -78 -10 -51Z" />
<glyph unicode="-" glyph-name="hyphen" horiz-adv-x="484" d="M36 144Q54 193 225 193Q306 193 393 184Q353 155 290 155H195Q105 155 36 144Z" />
<glyph unicode="." glyph-name="period" horiz-adv-x="214" d="M8 17Q8 33 27 45T66 58Q92 58 92 34Q92 19 76 5T40 -10Q8 -10 8 17Z" />
<glyph unicode="/" glyph-name="slash" horiz-adv-x="330" d="M-68 -162Q25 -69 312 675Q317 690 345 705T396 720Q347 593 107 22Q70 -65 23 -113T-68 -162Z" />
<glyph unicode="0" glyph-name="zero" horiz-adv-x="630" d="M53 174Q53 291 97 415T228 630T415 720Q506 720 559 653T613 474Q613 338 566 210T432 -3T244 -87Q150 -87 102 -13T53 174ZM137 153Q137 59 169 3T258 -53Q330 -53 396 38T499 256T537 495Q537 586
508 639T416 693Q352 693 297 635T208 491T156 315T137 153Z" />
<glyph unicode="1" glyph-name="one" horiz-adv-x="365" d="M-46 -46Q-26 -48 -14 -48Q30 -48 94 -37Q130 47 183 312T238 584Q145 518 123 518Q110 518 104 524T98 547Q131 564 195 615T308 720Q317 712 317 689Q317 671 307 632T294 577Q233 163 142 -30Q163
-27 182 -27Q224 -27 248 -39T279 -83Q234 -78 200 -78Q167 -78 112 -82T30 -87Q10 -87 -11 -76T-46 -46Z" />
<glyph unicode="2" glyph-name="two" horiz-adv-x="559" d="M-19 0Q-19 48 56 48Q91 48 161 34Q261 123 345 274T429 551Q429 623 400 658T323 693Q259 693 223 636T186 491Q186 456 198 423H193Q157 432 140 452T123 512Q123 595 184 657T339 720Q411 720 455
668T499 538Q499 445 452 341Q413 254 347 168T209 23L237 17Q371 -14 424 -14Q458 -14 500 11Q476 -87 398 -87Q343 -87 206 -29Q200 -27 186 -21T163 -11Q96 -54 49 -54Q19 -54 0 -39T-19 0ZM12 -2Q12 -13 23 -20T48 -27Q77 -27 123 4Q72 22 47 22Q29 22 21 15T12
-2Z" />
<glyph unicode="3" glyph-name="three" horiz-adv-x="510" d="M6 55Q6 97 28 130T87 163Q100 163 105 162Q91 150 82 123T73 69Q73 19 102 -18T179 -55Q241 -55 291 8T341 168Q341 234 315 285T230 351Q301 383 346 456T392 596Q392 646 366 669T302 693Q257 693
223 664T188 585Q188 551 204 518Q199 507 187 499T164 490Q147 490 137 515T127 569Q127 638 184 679T314 720Q378 720 423 687T468 591Q468 522 416 451T293 361Q371 341 407 286T443 168Q443 70 363 -8T170 -87Q86 -87 46 -44T6 55Z" />
<glyph unicode="4" glyph-name="four" horiz-adv-x="478" d="M-8 221Q-8 248 10 263Q48 308 139 394T311 564T432 720Q443 716 443 694Q443 671 424 639Q396 521 352 288H394Q432 288 454 294Q436 268 410 252T364 235H342Q334 195 331 175Q321 122 309 32T297
-87Q220 -80 220 -40Q224 -3 248 130Q249 138 270 236Q254 236 226 236T187 237Q69 237 -8 221ZM80 288Q116 293 181 293Q222 293 282 291Q322 468 345 545Q313 512 228 434T107 317Q101 311 93 302T80 288Z" />
<glyph unicode="5" glyph-name="five" horiz-adv-x="483" d="M-3 54Q-3 97 19 130T78 163Q91 163 96 162Q64 135 64 65Q64 14 89 -20T166 -55Q241 -55 287 16T334 174Q334 242 301 286T200 330Q163 330 108 319Q114 360 135 440L182 607L212 713Q264 700 318 700Q377
700 473 720Q477 705 477 693Q477 653 441 636T354 618Q326 618 290 624T245 631T232 628T222 611Q210 583 192 521T160 404T146 348Q193 358 233 358Q330 358 380 306T431 169Q431 60 356 -13T166 -87Q78 -87 38 -44T-3 54Z" />
<glyph unicode="6" glyph-name="six" horiz-adv-x="561" d="M49 160Q49 217 61 280T97 406T154 525T230 625T325 694T434 720Q477 720 502 706T528 662Q528 628 482 614Q482 619 483 627T484 642Q484 697 429 697Q369 697 313 636T220 491T160 309Q230 374 329
374Q409 374 460 325T512 180Q512 66 439 -10T253 -87Q147 -87 98 -19T49 160ZM138 140Q138 108 143 78T160 16T197 -35T258 -55Q331 -55 378 20T425 186Q425 262 390 301T300 340Q215 340 177 284T138 140Z" />
<glyph unicode="7" glyph-name="seven" horiz-adv-x="403" d="M59 289Q60 317 83 332T133 351T200 354H224Q255 413 316 515L389 635Q372 635 312 632T228 629Q126 629 126 676Q126 694 139 718Q148 717 176 712T219 704T261 700T322 698Q431 698 490 718Q459
668 436 643Q355 524 276 351Q368 346 375 346Q395 346 407 349Q372 298 328 298Q285 298 252 299L234 256Q220 223 214 206L196 157Q185 126 179 105T168 58T163 11Q163 -18 175 -27Q161 -57 137 -72T95 -87Q81 -87 71 -75T61 -42Q61 29 195 299Q109 297 59 289Z"
/>
<glyph unicode="8" glyph-name="eight" horiz-adv-x="527" d="M29 77Q29 101 34 122T55 166L80 201Q90 215 117 238T156 270L202 304L245 336Q191 395 162 444T133 554Q133 636 188 677T318 719Q387 719 428 682T469 575Q469 508 432 456T326 349Q368 303 388
279T430 210T452 122Q452 29 377 -29T204 -87Q113 -87 71 -37T29 77ZM90 80Q90 23 127 -12T214 -48Q273 -48 321 -1T370 118Q370 169 345 211T271 307Q225 274 202 255T148 206T104 145T90 80ZM211 567Q211 516 234 472T300 379Q411 472 411 576Q411 632 385 662T319
692Q278 692 245 661T211 567Z" />
<glyph unicode="9" glyph-name="nine" horiz-adv-x="566" d="M86 462Q86 573 156 646T336 720T497 648T549 458Q549 372 523 278T452 101T335 -34T183 -87Q87 -87 87 -27Q87 5 131 19Q131 14 131 7T130 -6Q130 -64 187 -64Q233 -64 275 -30T349 62T404 186T442
324Q377 259 276 259Q194 259 140 310T86 462ZM173 456Q173 375 210 334T304 293Q381 293 419 340T457 469Q457 510 452 545T433 615T394 668T332 688Q262 688 218 617T173 456Z" />
<glyph unicode=":" glyph-name="colon" horiz-adv-x="216" d="M10 17Q10 33 29 45T68 58Q94 58 94 34Q94 19 78 5T42 -10Q10 -10 10 17ZM70 267Q70 283 89 295T128 308Q154 308 154 284Q154 269 138 255T102 240Q70 240 70 267Z" />
<glyph unicode=";" glyph-name="semicolon" horiz-adv-x="213" d="M1 -51Q1 -18 21 19T62 56Q72 56 79 48T87 28Q78 19 70 9T57 -10T45 -31L36 -49L27 -69Q20 -83 18 -88Q1 -78 1 -51ZM70 267Q70 283 89 295T128 308Q154 308 154 284Q154 269 138 255T102 240Q70
240 70 267Z" />
<glyph unicode="&lt;" glyph-name="less" horiz-adv-x="310" d="M21 158Q70 179 124 225T211 316Q216 308 216 294Q216 235 47 147Q75 127 90 117T135 92T209 60Q195 44 180 44Q144 44 87 86T21 158Z" />
<glyph unicode="=" glyph-name="equal" horiz-adv-x="503" d="M52 106Q70 155 241 155Q322 155 409 146Q369 117 306 117H205Q119 117 52 106ZM52 206Q70 255 241 255Q322 255 409 246Q369 217 306 217H205Q119 217 52 206Z" />
<glyph unicode="&gt;" glyph-name="greater" horiz-adv-x="324" d="M61 294Q61 308 66 316Q98 271 152 225T256 158Q248 128 191 86T97 44Q82 44 68 60Q112 77 142 92T187 117T230 147Q61 235 61 294Z" />
<glyph unicode="?" glyph-name="question" horiz-adv-x="437" d="M108 500Q108 588 168 654T318 720Q381 720 417 686T453 587Q453 546 437 510T396 445L346 386Q320 357 295 318T258 237Q252 217 247 180T233 124Q214 134 208 142T202 171Q202 215 221 256T270
333L326 404Q354 439 373 484T393 579Q393 633 371 662T314 692Q259 692 211 629T163 480Q163 456 170 423Q134 429 121 448T108 500ZM160 16Q160 33 178 45T218 58Q244 58 244 36Q244 19 228 5T192 -10Q179 -10 170 -3T160 16Z" />
<glyph unicode="@" glyph-name="at" horiz-adv-x="583" d="M3 88Q3 208 94 301T322 395Q425 395 479 342T533 214Q533 138 481 74T359 9Q295 9 295 68Q295 74 297 88Q228 -5 166 -5Q140 -5 124 12T107 61Q107 136 180 221T329 307Q360 307 381 291T402 247Q402
213 362 213Q366 224 366 240Q366 285 328 285Q274 285 218 204T162 60Q162 28 184 28Q202 28 224 45T274 95T315 148L352 202Q362 201 373 196T384 182Q384 175 361 134T338 69Q338 36 372 36Q419 36 460 90T501 208T456 318T322 365Q200 365 120 278T39 84Q39
8 84 -44T222 -96Q339 -96 436 -11L442 -19Q352 -121 216 -121Q110 -121 57 -61T3 88Z" />
<glyph unicode="A" glyph-name="A" horiz-adv-x="592" d="M-17 -35Q-17 40 135 278Q74 283 27 283H-8Q11 335 96 335Q122 335 168 328Q245 444 324 546T450 692Q479 720 498 720Q519 720 551 688Q518 662 457 440T395 94Q395 14 432 14Q487 14 563 162L573 152Q542
70 496 20T400 -30Q322 -30 322 104Q322 168 339 253Q275 263 191 273Q93 93 17 -87Q-17 -68 -17 -35ZM217 319L290 302Q337 291 346 288Q388 485 466 657Q375 601 217 319Z" />
<glyph unicode="B" glyph-name="B" horiz-adv-x="608" d="M19 -7Q19 -4 24 -4Q26 -4 36 -6T67 -11T118 -14Q286 -14 401 57T516 223Q516 349 264 349Q250 349 225 349T189 348L99 26Q74 26 57 40T40 74Q40 83 54 131Q70 185 98 269T176 484T266 692Q229 685 198
672T149 648T128 638Q120 638 108 648T96 665Q140 683 166 692T238 711T333 720Q373 720 408 714T481 693T541 644T564 561Q564 404 335 366Q563 352 563 205Q563 136 517 78T402 -14T261 -68T130 -87Q19 -87 19 -7ZM195 371Q254 373 305 384T403 417T477 478T504
569Q504 699 335 699Q322 699 316 698Q257 583 195 371Z" />
<glyph unicode="C" glyph-name="C" horiz-adv-x="534" d="M22 157Q22 253 60 355T156 537T289 668T433 719Q525 719 525 633Q525 571 487 496T409 420Q389 420 378 443Q415 485 450 545T485 644Q485 689 436 689Q367 689 288 600T155 380T102 140Q102 58 137 3T243
-53Q320 -53 397 10T515 162L529 152Q475 46 395 -20T219 -87Q120 -87 71 -16T22 157Z" />
<glyph unicode="D" glyph-name="D" horiz-adv-x="653" d="M56 -42Q82 83 139 268T229 538Q265 632 307 632Q321 632 335 622Q275 483 214 288T119 -57Q143 -61 162 -61Q265 -61 360 16T512 214T569 457Q569 574 514 633T364 693Q266 693 201 637T135 498Q135 476
140 461Q80 461 80 517Q80 590 175 655T394 720Q521 720 582 645T643 446Q643 341 601 242T491 71T337 -44T163 -87Q88 -87 56 -42Z" />
<glyph unicode="E" glyph-name="E" horiz-adv-x="498" d="M-15 95Q-15 188 61 266T244 354Q168 417 168 512Q168 594 227 656T374 719Q429 719 458 691T488 611Q488 557 461 509T408 460Q386 460 371 492Q455 565 455 631Q455 696 384 696Q317 696 279 639T241
495Q241 394 299 344Q203 328 141 252T78 92Q78 35 109 -9T206 -53Q283 -53 360 10T478 162L492 152Q436 44 356 -21T180 -87Q92 -87 39 -35T-15 95Z" />
<glyph unicode="F" glyph-name="F" horiz-adv-x="482" d="M66 539Q66 616 145 665T341 715Q377 715 443 708T540 700Q580 700 614 710Q579 670 554 655T501 640Q484 640 434 647L359 657Q331 589 263 374Q295 372 354 366T438 358Q422 335 393 330T248 323L204
174Q154 6 152 -87Q110 -84 97 -65T84 -8Q84 7 86 24T96 67L108 109Q113 127 125 161L142 210Q147 225 163 267L182 319Q157 317 105 310L71 305Q75 371 202 375Q267 554 318 660Q292 662 279 662Q186 662 153 634T119 540Q119 499 132 461Q66 472 66 539Z" />
<glyph unicode="G" glyph-name="G" horiz-adv-x="554" d="M22 161Q22 286 84 417T244 634T433 719Q486 719 511 687T537 606Q537 552 511 506T449 460Q429 460 418 483Q442 500 469 549T496 636Q496 689 437 689Q437 689 436 689Q367 689 288 599T155 379T102
141Q102 52 139 0T236 -53Q310 -53 369 45T436 250Q378 263 333 263Q325 263 305 263T272 262Q284 314 340 314Q373 314 438 291T509 267L502 235Q441 76 441 -9Q441 -24 443 -50T445 -87Q391 -66 391 -16Q391 7 398 31Q313 -87 210 -87Q210 -87 209 -87Q128 -87
75 -21T22 161Z" />
<glyph unicode="H" glyph-name="H" horiz-adv-x="617" d="M55 -87Q79 49 165 314L99 307Q100 351 182 368L267 619Q281 660 281 677Q281 692 267 692Q222 692 183 626T143 504Q143 485 148 470Q88 470 88 527Q88 592 158 656T288 720Q334 720 334 672Q334 655
326 629L248 375Q284 377 306 377Q384 377 476 368Q550 611 577 668Q601 720 632 720Q590 609 527 364Q537 364 562 362T602 360Q572 328 520 328Q519 328 518 328Q497 242 487 191Q454 36 454 -48Q454 -49 454 -51Q454 -69 456 -87Q418 -83 403 -66T387 -9Q387
49 411 142Q427 208 464 327Q297 326 231 320Q145 49 124 -23Q114 -55 94 -71T55 -87Z" />
<glyph unicode="I" glyph-name="I" horiz-adv-x="459" d="M-38 -88Q-35 -62 -22 -45T15 -21T64 -11T125 -8Q167 83 231 355T307 661Q174 658 82 641Q96 718 284 718Q285 718 286 718Q407 718 548 697Q513 662 453 662Q452 662 451 662Q373 662 342 661Q268 263
243 162Q208 24 159 -9Q188 -11 264 -19T376 -28Q333 -71 263 -71H202Q153 -71 136 -72T82 -74T18 -79T-38 -88Z" />
<glyph unicode="J" glyph-name="J" horiz-adv-x="411" d="M-31 44Q-31 107 -10 159T45 212Q57 212 73 204Q37 112 37 44Q37 -51 99 -51Q99 -51 100 -51Q127 -51 147 -28T189 54Q224 151 269 343T340 667Q217 666 138 647Q149 718 301 718Q399 718 510 697Q493
668 433 668Q419 668 396 668T362 667Q383 650 383 620Q383 571 338 374T241 61Q204 -23 165 -54T77 -86Q-31 -86 -31 44Z" />
<glyph unicode="K" glyph-name="K" horiz-adv-x="590" d="M30 -69L48 -27Q57 -5 70 30L94 95L125 187L163 297L213 443L273 619Q286 655 286 668Q286 692 262 692Q217 692 178 626T138 504Q138 485 143 470Q83 470 83 527Q83 592 153 656T283 720Q329 720 329
672Q329 655 321 629L237 357Q244 366 254 376T273 394L298 413L323 433Q398 493 475 572T596 720Q605 708 605 676Q605 567 241 322L289 241Q302 219 334 173T391 98T458 28T549 -54Q532 -87 496 -87Q496 -87 495 -87Q446 -87 359 41T216 291L119 -23Q114 -39
105 -49T81 -63T57 -68T30 -69Z" />
<glyph unicode="L" glyph-name="L" horiz-adv-x="570" d="M-74 34Q-74 78 -1 78Q43 78 122 57Q139 86 157 132T185 208T218 309L247 400Q201 415 175 444T148 507Q148 536 165 561T210 586Q197 568 197 524Q197 452 254 421Q276 488 296 536T342 629T401 697T469
720Q506 720 536 696T566 618Q566 582 551 543T508 469T433 411T326 388H310Q225 132 166 44Q175 41 211 30L260 15Q272 11 303 3T351 -8T390 -15T431 -18Q471 -18 502 -2Q472 -87 397 -87Q371 -87 335 -77T277 -57T202 -24T137 6Q84 -53 26 -53Q-19 -53 -46 -24T-74
34ZM-48 14T-27 -5T22 -24Q64 -24 99 22Q25 52 -15 52Q-48 52 -48 33ZM316 407Q398 408 455 491T512 645Q512 695 476 695Q454 695 433 674T391 607T355 519T316 407Z" />
<glyph unicode="M" glyph-name="M" horiz-adv-x="763" d="M-17 -87L300 616Q310 638 310 657Q310 683 276 683Q217 683 185 627T152 501Q152 488 154 470Q128 470 115 496T101 552Q101 616 164 668T296 720Q348 720 372 673T397 496Q397 425 387 283T376 102Q400
194 465 325T578 535T661 666Q672 682 677 689T691 701T711 707Q725 707 743 700Q718 640 698 560Q664 428 636 257T607 -5Q607 -21 608 -32T611 -49T616 -67T622 -87Q572 -87 556 -63T540 25Q540 100 556 198T589 367L640 564Q576 482 494 302T372 3Q361 -1 357
-1Q332 -1 323 28T313 121Q313 176 321 335T329 546Q329 574 327 602L261 448L206 314L160 203L120 110L86 37Q68 1 57 -19T32 -57T7 -80T-17 -87Z" />
<glyph unicode="N" glyph-name="N" horiz-adv-x="640" d="M46 -87Q60 -33 86 52L160 294L258 619Q265 644 265 660Q265 683 250 683Q205 683 170 622T134 505Q134 485 139 470Q79 470 79 527Q79 593 148 656T279 720Q298 720 313 709T340 674T360 626T375 560T385
489T395 408Q416 221 439 72Q457 194 519 410T600 671Q607 687 625 703T663 720Q605 566 535 294T464 -87Q432 -87 413 -69T386 -6Q359 136 295 589Q161 108 126 17Q93 -74 61 -85Q54 -87 46 -87Z" />
<glyph unicode="O" glyph-name="O" horiz-adv-x="623" d="M21 161Q21 255 59 356T156 537T290 667T435 719Q472 719 495 707H484Q422 707 354 654T232 519T144 337T109 147Q109 60 142 4T243 -53Q332 -53 408 38T524 256T564 505Q564 556 553 599T519 643Q485
643 442 568T384 429Q336 440 336 478Q336 531 401 600T517 670Q541 670 559 652T585 602T598 541T602 477Q602 347 564 237T468 58T342 -49T213 -87Q127 -87 74 -19T21 161Z" />
<glyph unicode="P" glyph-name="P" horiz-adv-x="527" d="M18 -37Q18 -22 32 18L112 264Q141 350 185 466T278 693Q244 686 212 673T162 649T139 638Q132 638 120 648T108 665Q236 720 329 720Q391 720 448 700T545 634T586 527Q586 468 552 423T472 355T367 318T271
300T205 296H195L87 -87Q60 -87 39 -73T18 -37ZM199 312Q257 315 311 330T413 373T490 444T519 544Q519 620 467 659T338 699Q277 578 199 312Z" />
<glyph unicode="Q" glyph-name="Q" horiz-adv-x="693" d="M35 323T88 443T233 641T431 720Q526 720 580 655T634 477Q634 350 570 211T408 -4Q491 -50 556 -50Q574 -50 614 -38Q590 -119 516 -119Q487 -119 457 -106T407 -78T356 -37Q304 -63 256 -63Q224 -63
201 -53T166 -27T151 2T146 25Q146 45 164 61T219 77Q245 77 274 67T323 46T378 13Q461 88 512 239T564 509Q564 595 532 644T432 693Q363 693 300 640T195 505T129 327T104 144Q104 97 112 60Q35 60 35 197Q35 323 88 443ZM172 24Q172 4 191 -17T256 -38Q295 -38
334 -17Q257 51 209 51Q172 51 172 24Z" />
<glyph unicode="R" glyph-name="R" horiz-adv-x="577" d="M16 -37Q16 -22 30 18Q156 407 283 695Q246 689 212 675T158 649T134 638Q127 638 115 648T103 665Q230 720 328 720Q390 720 445 702T540 640T581 533Q581 477 548 435T471 371T369 336T274 319T208 316L247
249L287 178Q300 156 327 115T378 46T438 -18T515 -88Q509 -101 494 -111T464 -121Q429 -121 372 -49T267 111T185 277L82 -87Q56 -87 36 -73T16 -37ZM201 332Q280 337 347 359T464 432T514 554Q514 630 463 664T335 699Q275 580 201 332Z" />
<glyph unicode="S" glyph-name="S" horiz-adv-x="536" d="M-6 92Q-6 163 33 194T122 226Q67 166 67 92Q67 32 106 -8T220 -48T350 -9T406 98Q406 145 375 182T298 247L209 300Q165 327 134 365T102 453Q102 511 136 571T237 676T387 720Q492 720 492 620Q492 570
468 508T415 400Q382 407 382 443Q382 471 411 547T441 653Q441 696 385 696Q297 696 231 621T165 476Q165 435 196 403T271 346L358 295Q402 269 433 226T464 126Q464 29 384 -29T203 -87Q115 -87 55 -41T-6 92Z" />
<glyph unicode="T" glyph-name="T" horiz-adv-x="490" d="M69 632Q76 720 313 720Q388 720 490 709T635 698Q582 651 464 651Q453 651 429 651T393 652Q311 447 236 175Q233 164 226 138T215 101L208 70Q203 49 200 39L195 13Q191 -4 190 -15T187 -39T186 -65Q186
-80 187 -87Q108 -87 108 -16Q108 23 145 130Q256 452 349 652Q170 649 69 632Z" />
<glyph unicode="U" glyph-name="U" horiz-adv-x="706" d="M25 539Q25 604 83 662T216 720Q319 720 319 599Q319 524 258 329T196 65Q196 15 216 -16T280 -47Q319 -47 354 -21T415 49T458 136T487 224L528 391Q544 453 570 542T619 675T661 720Q681 720 711 688Q681
667 604 419T527 42Q527 -25 545 -50T607 -75Q572 -99 541 -99Q505 -99 483 -68T460 7Q460 38 469 98Q384 -87 253 -87Q191 -87 157 -49T123 49Q123 111 185 318T248 604Q248 692 192 692Q143 692 115 635T86 519Q86 489 94 470Q25 470 25 539Z" />
<glyph unicode="V" glyph-name="V" horiz-adv-x="632" d="M25 542Q25 606 81 663T208 720Q269 720 300 673T331 542T299 344T234 128T202 -17Q202 -56 230 -56Q285 -56 369 47T518 295T582 544Q582 631 527 648Q554 694 585 694Q609 694 627 665T646 583Q646 476
573 316T394 35T210 -87Q179 -87 152 -69T124 -7Q124 31 155 130T218 347T250 552Q250 580 250 595T246 632T237 665T219 684T190 692Q140 692 114 638T87 524Q87 491 96 470Q59 470 42 490T25 542Z" />
<glyph unicode="W" glyph-name="W" horiz-adv-x="906" d="M25 542Q25 606 81 663T208 720Q269 720 300 673T331 542T299 344T234 129T202 -17Q202 -56 232 -56Q279 -56 347 29T466 221T526 395Q556 395 571 380T586 346Q586 329 568 286L530 196Q509 149 492 90T475
-14Q475 -35 480 -45T503 -56Q558 -56 642 47T791 295T855 544Q855 631 800 648Q827 694 858 694Q882 694 900 665T919 583Q919 476 846 316T667 35T483 -87Q450 -87 424 -68T397 -12Q397 15 417 78Q300 -87 210 -87Q179 -87 152 -69T124 -7Q124 31 155 130T218
347T250 552Q250 580 250 595T246 632T237 665T219 684T190 692Q140 692 114 638T87 524Q87 491 96 470Q59 470 42 490T25 542Z" />
<glyph unicode="X" glyph-name="X" horiz-adv-x="662" d="M25 -112Q28 -82 38 -65T74 -21Q187 101 301 246Q293 370 291 468Q289 601 280 646T232 692Q186 692 157 636T128 519Q128 489 136 470Q67 470 67 539Q67 603 125 661T255 720Q335 720 359 625Q373 569
374 398Q375 364 375 344Q533 563 597 722Q605 716 612 702T620 674Q620 601 376 289Q386 -50 470 -50Q521 -50 640 162L652 152Q590 25 545 -31T443 -87Q404 -87 377 -62T335 11T314 100T304 198Q217 91 138 3T25 -112Z" />
<glyph unicode="Y" glyph-name="Y" horiz-adv-x="666" d="M23 539Q23 604 81 662T214 720Q267 720 292 690T318 619Q318 586 285 465T251 287Q251 191 321 191Q384 191 438 263T533 440Q601 720 653 720Q679 720 709 688Q659 608 633 529T544 194L524 118Q517
90 502 45T473 -28T437 -90T389 -142T330 -174T255 -187Q195 -187 156 -162T117 -92Q117 -38 177 -18Q169 -45 169 -72Q169 -114 191 -138T256 -162Q402 -162 465 121L483 211L507 326Q416 151 290 151Q181 151 181 270Q181 324 215 447T249 614Q249 692 192 692Q142
692 113 635T84 519Q84 489 92 470Q23 470 23 539Z" />
<glyph unicode="Z" glyph-name="Z" horiz-adv-x="631" d="M-25 26Q-25 78 52 78Q100 78 188 52Q276 145 383 321Q323 320 253 310L219 305Q223 375 368 375Q383 375 413 373Q495 519 530 610Q507 616 452 637T344 675T252 692Q139 692 139 548Q139 526 143 513Q89
523 89 585Q89 651 140 685T282 720Q356 720 468 688T628 656Q650 656 660 658Q633 635 610 623Q562 508 480 367Q570 358 586 358Q570 335 548 330T454 323Q342 140 236 38Q414 -18 481 -18Q521 -18 552 -2Q522 -87 447 -87Q430 -87 409 -83T372 -74T326 -57T284
-40L238 -18Q203 -1 195 2Q123 -54 67 -54Q26 -54 1 -29T-25 26ZM1 28Q1 9 18 -9T62 -27Q99 -27 154 20Q77 52 39 52Q39 52 38 52Q1 52 1 28Z" />
<glyph unicode="[" glyph-name="bracketleft" horiz-adv-x="393" d="M29 -67Q34 -58 40 -32T69 114L141 498Q162 612 197 657T271 703Q278 703 303 702T343 700Q408 700 443 720Q440 670 414 655T338 640Q322 640 305 642T265 650L231 657Q198 561 147 283T86
-32Q199 -31 239 -28T326 -11Q319 -87 196 -87Q112 -87 29 -67Z" />
<glyph unicode="\" glyph-name="backslash" horiz-adv-x="560" d="M164 720Q186 720 202 706T225 675Q254 600 296 393L375 19Q412 -148 435 -162Q392 -154 363 -112T308 22Q289 92 232 392T164 720Z" />
<glyph unicode="]" glyph-name="bracketright" horiz-adv-x="410" d="M-14 -88Q-9 -18 91 -18Q103 -18 215 -26Q248 69 304 359T367 674H304Q179 674 105 653Q105 693 136 706T234 720Q306 720 401 699Q398 684 379 565L339 319Q318 193 306 132Q300 102 297 86T282
36T259 -18T225 -54T178 -71Q38 -71 -14 -88Z" />
<glyph unicode="^" glyph-name="asciicircum" horiz-adv-x="203" d="M0 460Q0 487 45 517T114 548T171 509T204 437Q204 414 187 406Q166 449 113 498Q46 474 10 441Q0 447 0 460Z" />
<glyph unicode="_" glyph-name="underscore" horiz-adv-x="845" d="M-20 -66Q-15 -19 75 -2T332 16Q440 16 548 7T716 -2Q651 -47 553 -47Q489 -47 405 -47T291 -48T213 -48T148 -50T98 -53T42 -58T-20 -66Z" />
<glyph unicode="`" glyph-name="grave" horiz-adv-x="125" d="M0 526Q3 557 22 557Q49 557 87 507T126 436Q126 417 112 410Q74 462 0 526Z" />
<glyph unicode="a" glyph-name="a" horiz-adv-x="436" d="M-26 36Q-26 95 15 167T123 291T251 343Q290 343 316 322T342 268Q342 225 293 225Q298 243 298 260Q298 316 249 316Q205 316 156 266T75 149T43 33Q43 -6 70 -6Q88 -6 112 11T156 49T203 105T244 160L280
212Q320 205 320 187Q320 179 291 127T262 48Q262 31 270 18T296 4Q325 4 369 45T456 162L466 152Q435 72 379 21T268 -30Q233 -30 215 -10T196 40Q196 52 199 69Q154 9 119 -19T48 -47Q15 -47 -5 -26T-26 36Z" />
<glyph unicode="b" glyph-name="b" horiz-adv-x="394" d="M-10 53Q-10 148 50 309T186 592T301 714Q316 714 324 695T333 651Q333 604 302 529T216 379T105 270Q92 246 75 180T57 59Q57 -35 112 -35Q141 -35 172 -12T222 49Q187 67 168 102T149 178Q149 225 173
254T233 284Q262 284 279 260T296 192Q296 126 261 56Q273 53 287 53Q312 53 333 62T369 91T394 124T415 162L427 149Q380 35 284 35Q267 35 252 38Q186 -73 93 -73Q42 -73 16 -40T-10 53ZM116 309Q180 360 239 470T299 625Q299 633 295 633Q284 633 251 585T177
459T116 309ZM184 173Q184 101 232 69Q255 118 255 170Q255 204 246 224T222 245Q207 245 196 224T184 173Z" />
<glyph unicode="c" glyph-name="c" horiz-adv-x="323" d="M-5 72Q-5 171 65 254T214 338Q252 338 268 317T285 264Q285 234 272 213T235 191Q218 191 206 206Q221 213 232 237T243 285Q243 310 221 310Q169 310 113 225T57 65Q57 -18 130 -18Q191 -18 250 32T342
163L355 153Q321 62 251 3T107 -56Q57 -56 26 -23T-5 72Z" />
<glyph unicode="d" glyph-name="d" horiz-adv-x="473" d="M-16 54Q-16 109 24 181T129 306T253 360Q297 360 297 329Q297 325 295 315Q284 330 257 330Q207 330 158 280T82 168T54 66Q54 44 63 31T90 18Q133 18 196 95T306 293L345 394L383 488Q407 547 424 580L459
650Q479 687 495 703T525 720Q533 720 539 714T545 697Q545 677 509 599L430 435Q387 348 351 243T315 70Q315 47 316 38T322 21T338 14Q371 14 416 55T492 162L504 153Q475 77 419 26T310 -26Q276 -26 260 -4T244 49Q244 83 263 156Q212 72 158 21T59 -30Q30 -30
7 -9T-16 54Z" />
<glyph unicode="e" glyph-name="e" horiz-adv-x="333" d="M-14 72Q-14 164 70 262T240 360Q302 360 302 299Q302 226 224 170T54 105Q50 88 50 69Q50 -15 129 -15Q190 -15 252 36T353 162L365 153Q325 64 254 10T108 -44Q49 -44 18 -12T-14 72ZM59 124Q129 149
193 199T258 306Q258 329 237 329Q190 329 135 264T59 124Z" />
<glyph unicode="f" glyph-name="f" horiz-adv-x="312" d="M-68 -192Q-68 -115 -24 37T83 341T223 606T360 720Q394 720 394 676Q394 595 312 484T127 302Q120 286 108 252Q129 247 133 220Q138 186 141 168T151 127T166 92T188 73T220 64Q253 64 276 87T331 162L346
152Q322 96 285 67T215 38Q177 38 141 71Q140 -56 92 -168T-13 -280Q-34 -280 -51 -261T-68 -192ZM-6 -184Q-6 -232 13 -232Q41 -232 78 -126T115 60Q115 110 81 177Q-6 -79 -6 -184ZM143 343Q233 426 294 515T355 639Q355 653 341 653Q304 653 251 567T143 343Z"
/>
<glyph unicode="g" glyph-name="g" horiz-adv-x="389" d="M-20 -222Q-20 -202 -13 -184T13 -149T44 -120T88 -92L130 -69Q142 -62 175 -46Q203 26 226 119Q137 -9 63 -9Q28 -9 8 17T-12 88Q-12 154 32 215T137 312T253 347Q307 347 307 315Q307 299 295 295Q284
310 255 310Q181 310 118 231T54 83Q54 34 89 34Q116 34 156 71T237 166L249 219Q260 270 300 270Q309 270 321 267Q321 240 299 159T244 -7Q296 18 340 62T407 162L420 152Q399 91 345 41T233 -36Q132 -280 38 -280Q14 -280 -3 -266T-20 -222ZM11 -213Q11 -229
17 -238T35 -248Q58 -248 92 -205T164 -73Q91 -110 51 -142T11 -213Z" />
<glyph unicode="h" glyph-name="h" horiz-adv-x="476" d="M6 66Q6 158 62 315T190 593T305 714Q321 714 329 695T338 651Q338 604 306 528T219 378T108 270Q71 183 71 73Q71 57 73 39Q162 298 276 298Q314 298 333 272T352 208Q352 175 331 119T309 40Q309 2 339
2Q373 2 419 49T495 162L508 150Q475 74 424 25T316 -24Q283 -24 265 -7T247 39Q247 59 262 112T278 190Q278 238 240 238Q207 238 177 195T128 100T88 5T47 -38Q29 -38 18 -7T6 66ZM121 309Q185 360 244 470T304 625Q304 633 300 633Q289 633 257 588T184 463T121
309Z" />
<glyph unicode="i" glyph-name="i" horiz-adv-x="241" d="M-5 58Q-5 97 16 163T72 284T139 339Q161 339 161 317Q161 305 135 262T83 165T57 69Q57 34 68 22T106 9Q184 9 260 162L269 152Q241 68 187 21T72 -26Q35 -26 15 -3T-5 58ZM151 465Q151 485 175 501T224
517Q257 517 257 487Q257 467 237 450T192 432Q151 432 151 465Z" />
<glyph unicode="j" glyph-name="j" horiz-adv-x="218" d="M-192 -229Q-192 -192 -157 -148T-66 -73L-2 -41Q41 66 65 205L37 157L18 126L9 141Q25 171 46 227T84 315T119 347Q143 347 143 317Q143 290 120 190T63 -8Q67 -6 87 5T114 21L137 37Q154 48 163 59L187
84Q201 99 213 117T237 157L250 150Q236 116 218 90T175 43T136 12T91 -15T53 -36Q-36 -280 -140 -280Q-165 -280 -178 -266T-192 -229ZM-166 -222Q-166 -246 -149 -246Q-127 -246 -89 -200T-15 -73Q-88 -109 -127 -149T-166 -222ZM95 469Q95 490 118 506T168 522Q201
522 201 494Q201 472 181 455T135 437Q118 437 107 445T95 469Z" />
<glyph unicode="k" glyph-name="k" horiz-adv-x="446" d="M4 63Q4 161 65 320T199 596T307 714Q320 714 329 695T338 649Q338 577 279 485T134 341Q68 179 68 55Q179 335 292 335Q329 335 355 309T381 246Q381 207 353 179T294 140T239 129Q242 110 248 85T274
30T317 0Q392 0 465 163L475 153Q453 77 401 20T297 -38Q262 -38 238 -5T204 67T195 142Q214 142 242 151T296 183T323 238Q323 258 308 270T273 283Q232 283 194 239T134 144T93 41T73 -13Q62 -31 40 -31Q40 -31 39 -31Q27 -31 20 -24T9 -1T5 28T4 63ZM151 381Q216
433 260 507T304 624Q304 633 301 633Q286 633 240 557T151 381Z" />
<glyph unicode="l" glyph-name="l" horiz-adv-x="236" d="M3 73Q3 141 42 254T132 469T236 645T314 720Q328 720 337 695T347 646Q347 571 265 418T81 180Q68 122 68 79Q68 2 112 2Q149 2 187 49T256 162L271 154Q185 -30 84 -30Q84 -30 83 -30Q3 -30 3 73ZM90
214Q172 297 244 432T316 623Q316 639 309 639Q295 639 254 575T164 407T90 214Z" />
<glyph unicode="m" glyph-name="m" horiz-adv-x="646" d="M-35 -6Q-35 -2 -18 47T16 159T34 261Q53 282 80 282T107 256Q107 229 81 142Q130 220 186 276T292 332Q346 332 346 256Q346 191 315 115Q400 269 481 269Q538 269 538 205Q538 177 520 118T501 38Q501
4 531 4Q593 4 665 162L677 148Q649 74 604 22T504 -31Q471 -31 454 -11T437 42Q437 68 452 117T467 184Q467 220 438 220Q415 220 389 188T307 71Q295 53 259 -22Q243 -22 226 -17T208 -2Q208 0 239 93T271 228Q271 266 246 266Q203 266 130 171T19 -27Q4 -27
-15 -20T-35 -6Z" />
<glyph unicode="n" glyph-name="n" horiz-adv-x="466" d="M-38 7Q-38 10 -21 54T15 156T33 253Q52 274 79 274T106 248Q106 214 74 116Q189 292 282 292Q318 292 337 266T356 202Q356 169 336 118T315 44Q315 6 345 6Q407 6 485 162L496 149Q424 -20 323 -20Q289
-20 271 -3T253 44Q253 64 267 111T282 183Q282 232 242 232Q218 232 191 213T142 172T93 108T52 46L15 -15Q-22 -15 -38 7Z" />
<glyph unicode="o" glyph-name="o" horiz-adv-x="365" d="M-10 59Q-10 123 26 186T105 250Q114 250 126 245Q107 229 81 166T55 66Q55 9 91 9Q135 9 198 89Q170 112 155 149T139 226Q139 278 165 315T237 352Q306 352 306 275Q306 197 239 97Q257 87 277 87Q306
87 337 104T384 159L396 149Q377 105 342 84T270 63Q243 63 222 73Q142 -32 69 -32Q28 -32 9 -7T-10 59ZM182 223Q182 155 216 115Q274 201 274 269Q274 325 244 325Q222 325 202 295T182 223Z" />
<glyph unicode="p" glyph-name="p" horiz-adv-x="391" d="M-53 -119Q-20 -23 0 75T42 356Q43 366 46 369T61 373Q85 373 97 360T109 327Q109 299 86 192Q117 252 161 295T259 339Q303 339 331 308T360 225Q360 139 291 57T124 -26Q99 -26 83 -21T66 -8Q66 -3 91
-3Q169 -3 232 67T295 216Q295 250 281 271T238 293Q191 293 144 240T72 132Q-16 -241 -51 -275Q-56 -280 -63 -280Q-74 -280 -85 -263Q-95 -248 -94 -243Q-94 -235 -90 -220T-73 -173T-53 -119Z" />
<glyph unicode="q" glyph-name="q" horiz-adv-x="401" d="M-15 56Q-15 114 26 184T134 306T265 357Q299 357 321 343T344 308Q344 294 335 283T311 271Q311 295 297 310T254 326Q203 326 155 276T81 167T55 66Q55 44 64 31T90 18Q115 18 150 54T211 127T277 230Q296
261 321 261Q341 261 341 243Q341 231 305 165T253 29Q355 38 420 161L432 150Q401 80 353 45T251 5Q268 -49 268 -108Q268 -179 247 -229T194 -280Q159 -280 159 -209Q159 -153 175 -64T218 98Q129 -30 60 -30Q31 -30 8 -9T-15 56ZM213 -197Q213 -225 221 -225Q232
-225 239 -186T246 -99Q246 -58 239 -24Q213 -133 213 -197Z" />
<glyph unicode="r" glyph-name="r" horiz-adv-x="348" d="M1 127Q49 220 82 317Q72 327 72 341Q72 368 87 388T114 409Q128 409 128 385Q128 381 123 366T117 348Q117 336 133 323T168 297T203 262T219 209Q219 176 194 118T169 40Q169 10 199 10Q243 10 295 60T369
159L382 149Q351 80 292 27T173 -26Q139 -26 120 -8T100 39Q100 69 127 134T155 226Q155 236 152 245T147 260T136 273L125 283Q122 286 112 293T99 302Q52 182 10 110L1 127Z" />
<glyph unicode="s" glyph-name="s" horiz-adv-x="345" d="M-20 80Q-20 107 -12 125T7 150T29 162T44 170Q108 240 143 315V327Q143 361 154 378T182 395T198 382Q198 380 195 366T192 338Q192 308 218 227T244 97Q244 70 238 48Q312 61 364 161L373 151Q338 48
233 32Q202 -51 105 -51Q40 -51 10 -12T-20 80ZM25 81Q25 43 47 14T107 -16Q153 -16 170 33Q130 41 97 64T47 116Q25 115 25 81ZM51 147Q88 68 175 49Q179 75 179 96Q179 124 174 155T160 223T148 277Q97 193 51 147Z" />
<glyph unicode="t" glyph-name="t" horiz-adv-x="285" d="M-4 53Q-4 139 54 294Q30 298 18 302V320Q54 316 62 316Q106 430 156 513T236 597Q244 597 250 591T257 575Q257 560 238 523T183 424T124 313H161Q244 313 304 319V301Q198 289 133 289Q130 289 128 289H113Q58
164 58 72Q58 27 71 9T114 -9Q165 -9 215 36T304 162L317 152Q280 65 217 10T85 -46Q-4 -46 -4 53Z" />
<glyph unicode="u" glyph-name="u" horiz-adv-x="438" d="M0 71Q0 128 33 213T88 298Q107 298 125 278Q104 245 81 184T58 77Q58 10 94 10Q107 10 121 20T151 49T179 88T208 137L234 186L258 234Q271 263 276 271Q324 262 324 245Q324 242 307 205T274 118T257
40Q257 0 290 0Q324 0 373 44T457 162L470 153Q438 73 381 22T269 -30Q199 -30 199 44Q199 64 206 94Q136 -30 75 -30Q42 -30 21 -1T0 71Z" />
<glyph unicode="v" glyph-name="v" horiz-adv-x="407" d="M10 71Q10 90 16 202Q17 223 19 231T27 244T48 249Q65 249 69 243T74 217Q74 196 70 140T65 56Q65 0 88 0Q121 0 168 67T253 219Q257 332 299 332Q316 332 325 320T335 294Q335 285 327 270T309 227T300
160Q300 84 347 84Q390 84 426 158L439 148Q403 64 340 64Q269 64 256 161Q215 79 163 20T65 -39Q10 -39 10 71Z" />
<glyph unicode="w" glyph-name="w" horiz-adv-x="617" d="M0 71Q0 128 33 213T88 298Q96 298 110 292T125 278Q104 246 81 184T58 77Q58 10 93 10Q146 10 243 201Q255 261 261 276T283 291Q312 291 312 269Q312 266 310 258Q282 167 282 49Q282 0 304 0Q332 0
377 62T459 205Q459 332 509 332Q526 332 535 320T545 294Q545 285 537 270T519 227T510 160Q510 84 557 84Q601 84 636 158L649 148Q613 64 550 64Q486 64 466 148Q424 70 375 16T282 -39Q228 -39 228 58Q228 94 235 148Q146 -30 76 -30Q76 -30 75 -30Q43 -30
22 -1T0 71Z" />
<glyph unicode="x" glyph-name="x" horiz-adv-x="418" d="M10 145L30 188Q43 217 52 234T76 272T110 301T154 311Q219 311 237 216Q348 332 373 332Q379 332 388 329T398 321Q367 321 243 177Q244 164 246 143T249 108T252 78T257 50T266 29T279 15T297 10Q331
10 372 59T438 161L448 151Q425 83 374 29T272 -26Q232 -26 214 10T187 111L56 -52Q50 -59 44 -59Q34 -59 34 -44Q34 -9 182 156Q179 187 177 201T169 236T157 264T138 272Q124 272 112 266T87 242T66 213T42 171L19 129L10 145Z" />
<glyph unicode="y" glyph-name="y" horiz-adv-x="389" d="M-20 -252T-20 -227T-8 -180T17 -142T63 -107T114 -77L174 -46Q204 31 230 137Q152 10 84 10Q52 10 28 31T4 91Q4 146 37 227T92 309Q101 309 118 302T136 286Q116 257 93 193T70 90Q70 50 106 50Q133
50 169 87T239 178Q244 195 249 224Q260 275 300 275Q309 275 321 272Q321 245 299 161T243 -8Q356 36 408 162L421 152Q384 35 232 -35Q132 -280 43 -280Q16 -280 -2 -266ZM11 -218Q11 -228 18 -238T38 -248Q49 -248 67 -232T112 -174T164 -70Q124 -91 104 -103T58
-135T22 -174T11 -218Z" />
<glyph unicode="z" glyph-name="z" horiz-adv-x="317" d="M-71 -229Q-71 -204 -58 -182T-17 -137T37 -97L105 -55Q148 -29 174 -12Q174 61 105 115Q154 129 184 174T214 262Q214 286 204 300T175 315T138 305T106 281T77 239T51 192T23 134L11 144Q50 249 88 301T189
353Q224 353 248 331T272 271Q272 220 238 178T154 111Q206 71 224 21Q310 86 335 162L346 150Q321 71 230 2Q234 -11 234 -31Q234 -123 160 -201T-5 -280Q-71 -280 -71 -229ZM-43 -218Q-43 -251 -12 -251Q35 -251 99 -190T173 -35L111 -73L50 -111Q29 -124 4 -143T-32
-181T-43 -218Z" />
<glyph unicode="{" glyph-name="braceleft" horiz-adv-x="260" d="M37 -21Q37 12 74 102T111 233Q111 302 75 331Q115 335 134 376T158 474L167 587Q171 643 192 681T255 720Q305 720 310 667Q284 681 277 681Q253 681 240 646T220 558L208 455Q202 403 185 366T141
325Q167 298 167 256Q167 203 148 149T110 48T91 -30T124 -62Q139 -62 149 -54Q146 -87 102 -87Q37 -87 37 -21Z" />
<glyph unicode="|" glyph-name="bar" horiz-adv-x="259" d="M55 -132Q87 -45 118 309T159 697Q187 685 187 640Q187 554 176 350T154 52Q135 -132 55 -132Z" />
<glyph unicode="}" glyph-name="braceright" horiz-adv-x="256" d="M-21 -34Q-3 -46 13 -46Q40 -46 53 -1T78 129Q85 186 91 221T114 295T156 347Q131 375 131 419Q131 466 166 557T202 672Q202 687 195 687Q176 687 154 670Q158 691 180 705T222 720Q240 720
251 710T262 686Q262 669 225 577T188 434Q188 363 223 339Q181 329 160 281T135 173T125 53T99 -47T36 -87Q-16 -87 -21 -34Z" />
<glyph unicode="~" glyph-name="asciitilde" horiz-adv-x="435" d="M40 160Q75 206 123 206Q149 206 213 184T317 162Q332 162 347 165Q315 129 269 129Q241 129 180 148T86 168Q60 168 40 160Z" />
<glyph unicode="&#xa1;" glyph-name="exclamdown" horiz-adv-x="264" d="M-79 -227Q-79 -187 38 46T215 367Q215 320 160 177L121 76L83 -18Q59 -77 42 -111L6 -180Q-14 -216 -30 -233T-59 -250Q-67 -250 -73 -244T-79 -227ZM192 436Q192 451 208 465T244 480Q276
480 276 453Q276 437 257 425T218 412Q192 412 192 436Z" />
<glyph unicode="&#xa2;" glyph-name="cent" horiz-adv-x="403" d="M52 242Q52 327 114 404T252 502Q274 605 284 675Q289 712 329 720L289 508Q328 508 345 487T362 434Q362 404 349 383T312 361Q295 361 283 376Q298 383 309 407T320 455Q320 480 298 480Q288
480 283 479Q244 269 220 155Q288 167 341 214L358 198Q297 140 213 120L190 22Q181 -15 168 -54T141 -114T110 -148T68 -162Q102 -124 163 114Q113 114 83 147T52 242ZM114 235Q114 160 173 152Q206 281 245 465Q192 436 153 366T114 235Z" />
<glyph unicode="&#xa3;" glyph-name="sterling" horiz-adv-x="650" d="M-21 34Q-21 78 52 78Q96 78 175 57Q202 103 225 170Q147 161 143 160L109 155Q113 221 244 225L259 271Q243 268 211 265T163 260L129 255Q133 325 276 325L300 400Q254 415 228 444T201
507Q201 536 218 561T263 586Q250 568 250 524Q250 452 307 421Q329 488 349 536T395 629T454 697T522 720Q559 720 589 696T619 618Q619 582 604 543T561 469T486 411T379 388H363Q351 356 341 322Q365 320 418 314T496 308Q480 286 453 281T324 274Q312 240 305
223Q335 221 393 215T476 208Q460 185 431 180T285 173Q247 86 219 44Q228 41 264 30L313 15Q326 11 356 3T404 -8T443 -15T484 -18Q524 -18 555 -2Q525 -87 450 -87Q424 -87 388 -77T330 -57T255 -24T190 6Q137 -53 79 -53Q34 -53 7 -24T-21 34ZM5 52T5 33T25
-5T75 -24Q117 -24 152 22Q78 52 38 52Q5 52 5 33ZM369 407Q451 408 508 491T565 645Q565 695 529 695Q507 695 486 674T444 607T408 519L369 407Z" />
<glyph unicode="&#xa4;" glyph-name="currency" horiz-adv-x="697" d="M83 43Q93 53 119 72T175 117T229 180Q220 207 220 247Q220 338 266 424Q193 503 148 544Q130 560 130 604Q130 623 136 638Q164 611 293 469Q351 546 423 546T526 478Q540 494 560 523T591
565T624 589T676 601Q682 601 694 599Q682 582 540 417Q540 414 540 409T541 401Q541 307 487 212Q601 105 601 42Q601 30 599 24Q591 39 571 59L517 112L459 169Q401 96 335 96Q281 96 252 136Q169 43 83 43ZM277 237Q277 200 298 175T343 149Q376 149 410 192T466
298T488 412Q488 447 468 471T423 496Q385 496 350 449T296 343T277 237Z" />
<glyph unicode="&#xa5;" glyph-name="yen" horiz-adv-x="810" d="M110 539Q110 604 168 662T301 720Q354 720 379 690T405 619Q405 586 372 465T338 287Q338 191 408 191Q471 191 525 263T620 440Q688 720 740 720Q766 720 796 688Q746 608 720 529T631 194L610
113Q668 110 712 106Q672 77 609 77H600Q590 45 578 14Q626 13 712 6Q672 -23 609 -23H562Q486 -187 342 -187Q282 -187 243 -162T204 -93Q204 -38 264 -18Q256 -45 256 -72Q256 -114 278 -138T343 -162Q443 -162 506 -23Q421 -23 355 -34Q372 11 521 15Q528 32
541 77H536Q426 77 355 66Q373 115 544 115H550L552 121L570 211Q584 281 594 326Q503 151 377 151Q268 151 268 270Q268 324 302 447T336 614Q336 692 279 692Q229 692 200 635T171 519Q171 489 179 470Q110 470 110 539Z" />
<glyph unicode="&#xa6;" glyph-name="brokenbar" horiz-adv-x="260" d="M55 -132Q82 -60 108 197Q128 217 154 217Q166 217 166 194Q154 17 133 -57T55 -132ZM117 296Q120 334 126 399L135 502Q138 539 142 583T151 655T159 697Q187 685 187 640Q187 621 182 531T177
382Q177 368 170 348T145 316L117 296Z" />
<glyph unicode="&#xa7;" glyph-name="section" horiz-adv-x="416" d="M7 28Q7 73 31 93T88 113Q53 76 53 28Q53 -10 78 -36T151 -62Q198 -62 234 -37T270 31Q270 61 250 86T200 131L142 171Q113 192 93 222T72 290Q72 347 114 388T232 430Q248 430 256 429Q230
444 217 452T186 476T160 509T152 549Q152 607 204 663T330 719Q401 719 401 656T352 515Q331 519 331 542Q331 560 349 609T368 677Q368 704 333 704Q276 704 234 656T192 562Q192 536 210 516T255 481T308 447T352 396T371 320Q371 256 335 224T234 191Q218 191
211 192T191 200T166 210Q173 202 214 179T285 125T314 50Q314 -10 259 -48T140 -87Q84 -87 46 -57T7 28ZM128 310Q128 231 219 231Q314 231 314 316Q314 355 292 378T227 401Q185 401 157 379T128 310Z" />
<glyph unicode="&#xa8;" glyph-name="dieresis" horiz-adv-x="239" d="M0 466Q0 484 21 498T66 513Q96 513 96 485Q96 468 78 452T37 436Q0 436 0 466ZM144 445Q144 463 165 477T210 492Q240 492 240 464Q240 447 222 431T181 415Q144 415 144 445Z" />
<glyph unicode="&#xa9;" glyph-name="copyright" horiz-adv-x="592" d="M79 358Q79 482 156 551T327 620T496 552T571 362Q571 238 494 169T323 100T154 168T79 358ZM107 358Q107 257 167 193T323 128T481 193T543 362Q543 463 483 527T327 592T169 527T107 358ZM245
299V431Q245 478 267 500T326 522Q367 522 387 498T408 451Q408 434 393 434Q380 434 378 446Q370 495 327 495Q275 495 275 431V299Q275 235 329 235Q354 235 366 252T378 284Q378 296 391 296Q408 296 408 282Q406 250 385 230T326 209Q245 209 245 299Z" />
<glyph unicode="&#xaa;" glyph-name="ordfeminine" horiz-adv-x="383" d="M105 506Q105 571 169 645T299 720Q326 720 344 706T362 668Q362 638 328 638Q332 654 332 662Q332 702 297 702Q250 702 202 630T153 503Q153 476 172 476Q217 476 319 629Q347 622 347
611Q347 605 327 569T306 514Q306 502 312 493T330 483Q350 483 381 512T442 594L449 587Q428 531 388 495T311 459Q286 459 273 473T260 508Q260 513 262 529Q201 447 157 447Q134 447 120 462T105 506Z" />
<glyph unicode="&#xab;" glyph-name="guillemotleft" horiz-adv-x="435" d="M6 158Q55 179 109 225T196 316Q201 308 201 294Q201 235 32 147L75 117Q90 107 120 92T194 60Q180 44 165 44Q129 44 72 86T6 158ZM156 158Q205 179 259 225T346 316Q351 308 351 294Q351
235 182 147Q210 127 225 117T270 92T344 60Q330 44 315 44Q279 44 222 86T156 158Z" />
<glyph unicode="&#xac;" glyph-name="logicalnot" horiz-adv-x="667" d="M44 184Q73 233 346 233Q432 233 501 230Q506 261 529 282Q529 279 531 261T535 228Q552 228 615 224Q585 210 537 201Q537 195 537 183T538 165Q538 45 489 33Q493 50 495 62T498 91T499
118T500 155V197Q482 195 450 195Q391 194 316 194H211Q182 194 138 192T44 184Z" />
<glyph unicode="&#xad;" glyph-name="uni00AD" horiz-adv-x="484" d="M35 144Q53 193 224 193Q305 193 392 184Q368 168 328 162T188 155Q102 155 35 144Z" />
<glyph unicode="&#xae;" glyph-name="registered" horiz-adv-x="592" d="M79 358Q79 482 156 551T327 620T496 552T571 362Q571 238 494 169T323 100T154 168T79 358ZM107 358Q107 257 167 193T323 128T481 193T543 362Q543 463 483 527T327 592T169 527T107 358ZM251
224V508Q251 513 255 517T266 521H329Q415 521 415 437Q415 368 355 355L413 231Q415 227 415 224Q415 210 401 210Q397 210 393 214T386 222T380 232L376 239L323 353H282V224Q282 210 267 210Q251 210 251 224ZM282 379H329Q384 379 384 437Q384 494 329 494H282V379Z"
/>
<glyph unicode="&#xb0;" glyph-name="degree" horiz-adv-x="265" d="M92 450Q92 488 129 525T214 562Q290 562 290 508Q290 470 252 433T164 396Q92 396 92 450ZM124 450Q124 413 169 413Q200 413 230 446T260 509Q260 545 214 545Q182 545 153 513T124 450Z" />
<glyph unicode="&#xb1;" glyph-name="plusminus" horiz-adv-x="449" d="M54 84Q70 123 224 123Q314 123 375 116Q337 93 222 93Q119 93 54 84ZM54 289Q68 325 197 328V368Q197 419 223 450Q230 402 231 328Q302 327 375 321Q339 297 282 297H231Q228 179 187 165Q197
219 197 297Q110 297 54 289Z" />
<glyph unicode="&#xb2;" glyph-name="uni00B2" horiz-adv-x="354" d="M72 349Q72 375 113 375Q129 375 164 368Q213 411 253 486T294 623Q294 691 245 691Q216 691 199 663T181 593Q181 577 188 557H180Q160 563 151 573T142 603Q142 645 174 676T253 708Q290
708 313 682T337 616Q337 553 295 481T196 362L204 360Q272 344 295 344Q311 344 339 362Q324 304 282 304Q253 304 185 333L166 341Q134 320 110 320Q93 320 83 328T72 349ZM95 358T95 348T109 338Q119 338 140 351Q122 358 109 358Q95 358 95 348Z" />
<glyph unicode="&#xb3;" glyph-name="uni00B3" horiz-adv-x="294" d="M81 387Q81 408 93 425T126 442Q134 442 140 440Q123 426 123 393Q123 369 136 352T171 334Q200 334 224 365T248 442Q248 518 189 533Q226 549 249 585T273 654Q273 701 232 701Q211 701 195
687T179 649Q179 635 187 616Q179 600 163 600Q153 600 148 613T142 641Q142 676 171 697T238 718Q271 718 294 701T318 652Q318 619 295 585T236 538Q272 526 289 499T306 442Q306 393 265 354T166 314Q123 314 102 336T81 387Z" />
<glyph unicode="&#xb4;" glyph-name="acute" horiz-adv-x="125" d="M88 436Q88 457 126 507T192 557Q211 557 214 526Q140 462 102 410Q88 417 88 436Z" />
<glyph unicode="&#xb5;" glyph-name="uni00B5" horiz-adv-x="584" d="M-40 -242Q-29 -202 4 -116T60 73T105 356Q106 366 109 369T124 373Q148 373 160 360T172 327Q124 112 124 60Q124 10 153 10Q166 10 180 20T210 49T238 88T268 137L293 186L317 234Q330 263
335 271Q383 262 383 245Q383 242 367 205T333 118T316 40Q316 0 349 0Q383 0 432 44T516 162L529 153Q497 73 440 22T328 -30Q258 -30 258 44Q258 64 265 94Q195 -30 134 -30Q109 -30 92 -13Q17 -280 -9 -280Q-21 -280 -30 -264T-40 -242Z" />
<glyph unicode="&#xb6;" glyph-name="paragraph" horiz-adv-x="644" d="M61 336Q61 406 111 461T230 545T372 579Q370 653 363 708Q379 716 392 716T413 707T424 681T428 648T429 610T430 578L472 572Q470 661 466 708Q478 716 492 716Q520 716 528 558Q576 542
611 525Q608 518 592 508T570 498Q569 498 529 519Q530 502 530 468Q530 324 527 206T521 31T514 -37Q506 -60 487 -73T446 -87Q449 -81 455 21T466 276T472 541V545Q455 550 431 555Q434 480 434 334Q434 231 431 144T424 14T417 -37Q409 -58 383 -72T329 -87Q332
-50 339 33T350 156Q320 157 289 161T214 178T139 209T84 261T61 336Z" />
<glyph unicode="&#xb7;" glyph-name="middot" horiz-adv-x="209" d="M38 151Q38 167 57 179T96 192Q122 192 122 168Q122 153 106 139T70 124Q38 124 38 151Z" />
<glyph unicode="&#xb8;" glyph-name="cedilla" horiz-adv-x="217" d="M20 -137Q20 -120 42 -104Q52 -149 84 -149Q112 -149 139 -119T167 -62Q167 -37 150 -37Q135 -37 102 -57T65 -78Q59 -78 55 -72T51 -60Q51 -57 72 -28T104 11L139 38L86 -43Q120 -19 153 -19Q198
-19 198 -61Q198 -104 163 -138T81 -173Q53 -173 37 -163T20 -137Z" />
<glyph unicode="&#xb9;" glyph-name="uni00B9" horiz-adv-x="259" d="M66 338H78Q80 338 83 338T87 337Q109 337 137 342Q155 383 177 503T205 640Q165 614 154 614Q139 614 139 632Q153 639 186 665T244 717H250Q255 712 255 701T249 668Q245 651 231 583L212
488L199 426Q186 365 171 347Q176 348 184 348Q230 348 236 316Q210 318 193 318Q175 318 149 316T109 314Q82 314 66 338Z" />
<glyph unicode="&#xba;" glyph-name="ordmasculine" horiz-adv-x="279" d="M107 512Q107 573 162 646T277 720Q300 720 307 706Q321 706 328 698T336 679Q336 673 322 643T308 591Q308 575 328 575Q331 575 355 578Q344 558 314 558Q295 558 288 571Q265 517 232
485T163 452Q137 452 122 468T107 512ZM152 517Q152 482 179 482Q202 482 231 513T279 589Q275 605 275 629Q275 674 288 693Q234 693 193 630T152 517Z" />
<glyph unicode="&#xbb;" glyph-name="guillemotright" horiz-adv-x="454" d="M51 294Q51 308 56 316Q88 271 142 225T246 158Q238 128 181 86T87 44Q72 44 58 60Q102 77 132 92T177 117L220 147Q51 235 51 294ZM201 294Q201 308 206 316Q238 271 292 225T396 158Q388
128 331 86T237 44Q222 44 208 60Q252 77 282 92T327 117L370 147Q201 235 201 294Z" />
<glyph unicode="&#xbc;" glyph-name="onequarter" horiz-adv-x="642" d="M45 -87Q112 -20 265 255T475 675Q480 690 508 705T559 720Q540 672 415 433T230 97Q173 6 129 -40T45 -87ZM66 338H78Q80 338 83 338T87 337Q109 337 137 342Q155 383 177 503T205 640Q165
614 154 614Q139 614 139 632Q153 639 186 665T244 717H250Q255 712 255 701T249 668Q245 651 231 583L212 488L199 426Q186 365 171 347Q176 348 184 348Q230 348 236 316Q210 318 193 318Q175 318 149 316T109 314Q82 314 66 338ZM350 126Q350 141 360 151Q525
297 569 377Q582 375 582 363Q582 360 577 341T560 273T536 164H553Q564 164 589 169Q564 134 538 134H531Q510 29 510 -26Q462 -23 462 0Q462 19 487 134Q483 134 477 134T468 135H451Q390 135 350 126ZM405 165Q429 167 448 167Q453 167 462 167T476 166H495L500
189Q512 249 522 279L478 236Q414 175 405 165Z" />
<glyph unicode="&#xbd;" glyph-name="onehalf" horiz-adv-x="698" d="M51 -87Q118 -20 271 255T481 675Q486 690 514 705T565 720Q546 672 421 433T236 97Q179 6 135 -40T51 -87ZM72 338H84Q86 338 89 338T93 337Q115 337 143 342Q161 383 183 503T211 640Q171
614 160 614Q145 614 145 632Q159 639 192 665T250 717H256Q261 712 261 701T255 668Q251 651 238 584T218 488L205 426Q192 365 177 347Q182 348 190 348Q236 348 242 316Q216 318 199 318Q181 318 155 316T115 314Q89 314 72 338ZM345 19Q345 45 386 45Q402 45
437 38Q486 81 526 156T567 293Q567 361 518 361Q489 361 472 333T454 263Q454 247 461 227H453Q433 233 424 243T415 273Q415 315 447 346T526 378Q563 378 586 352T610 286Q610 223 568 151T469 32L477 30Q545 14 568 14Q584 14 612 32Q598 -26 555 -26Q526 -26
458 3L439 11Q408 -10 383 -10Q366 -10 356 -2T345 19ZM368 28T368 18T382 8Q392 8 413 21Q395 28 382 28Q368 28 368 18Z" />
<glyph unicode="&#xbe;" glyph-name="threequarters" horiz-adv-x="685" d="M83 387Q83 408 95 425T128 442Q136 442 142 440Q125 426 125 393Q125 369 138 352T173 334Q202 334 226 365T250 442Q250 518 191 533Q228 549 251 585T275 654Q275 701 234 701Q213
701 197 687T181 649Q181 635 189 616Q181 600 165 600Q155 600 150 613T144 641Q144 676 173 697T240 718Q273 718 296 701T320 652Q320 619 297 585T238 538Q274 526 291 499T308 442Q308 393 267 354T168 314Q125 314 104 336T83 387ZM88 -87Q155 -20 308 255T518
675Q523 690 551 705T602 720Q583 672 458 433T273 97Q216 6 172 -40T88 -87ZM393 126Q393 141 403 151Q568 297 612 377Q625 375 625 363Q625 360 620 341T603 273T579 164H596Q607 164 632 169Q607 134 581 134H574Q553 29 553 -26Q505 -23 505 0Q505 19 530
134Q526 134 520 134T511 135H494Q434 135 393 126ZM448 165Q472 167 491 167Q496 167 505 167T519 166H538L543 189Q555 249 565 279L521 236Q457 175 448 165Z" />
<glyph unicode="&#xbf;" glyph-name="questiondown" horiz-adv-x="415" d="M-50 -161Q-50 -124 -34 -92T6 -32L57 20Q83 46 108 81T145 154Q151 172 156 206T170 256Q189 247 195 239T201 214Q201 175 182 137T134 68L77 5Q48 -27 29 -68T10 -153Q10 -202 32 -228T89
-255Q144 -255 192 -198T240 -64Q240 -43 233 -13Q269 -18 282 -35T295 -82Q295 -161 235 -220T85 -280Q22 -280 -14 -249T-50 -161ZM156 344Q156 361 172 375T208 390Q221 390 230 383T240 364Q240 347 222 335T182 322Q156 322 156 344Z" />
<glyph unicode="&#xc0;" glyph-name="Agrave" horiz-adv-x="592" d="M-17 -35Q-17 40 135 278Q74 283 27 283H-8Q11 335 96 335Q122 335 168 328Q245 444 324 546T450 692Q479 720 498 720Q519 720 551 688Q518 662 457 440T395 94Q395 14 432 14Q487 14 563 162L573
152Q542 70 496 20T400 -30Q322 -30 322 104Q322 168 339 253Q275 263 191 273Q93 93 17 -87Q-17 -68 -17 -35ZM217 319L290 302Q337 291 346 288Q388 485 466 657Q375 601 217 319ZM435 864Q438 895 457 895Q484 895 522 845T561 774Q561 755 547 748Q509 800
435 864Z" />
<glyph unicode="&#xc1;" glyph-name="Aacute" horiz-adv-x="592" d="M-17 -35Q-17 40 135 278Q74 283 27 283H-8Q11 335 96 335Q122 335 168 328Q245 444 324 546T450 692Q479 720 498 720Q519 720 551 688Q518 662 457 440T395 94Q395 14 432 14Q487 14 563 162L573
152Q542 70 496 20T400 -30Q322 -30 322 104Q322 168 339 253Q275 263 191 273Q93 93 17 -87Q-17 -68 -17 -35ZM217 319L290 302Q337 291 346 288Q388 485 466 657Q375 601 217 319ZM516 774Q516 795 554 845T620 895Q639 895 642 864Q568 800 530 748Q516 755
516 774Z" />
<glyph unicode="&#xc2;" glyph-name="Acircumflex" horiz-adv-x="592" d="M-17 -35Q-17 40 135 278Q74 283 27 283H-8Q11 335 96 335Q122 335 168 328Q245 444 324 546T450 692Q479 720 498 720Q519 720 551 688Q518 662 457 440T395 94Q395 14 432 14Q487 14
563 162L573 152Q542 70 496 20T400 -30Q322 -30 322 104Q322 168 339 253Q275 263 191 273Q93 93 17 -87Q-17 -68 -17 -35ZM217 319L290 302Q337 291 346 288Q388 485 466 657Q375 601 217 319ZM418 798Q418 825 463 855T532 886T589 847T622 775Q622 752 605
744Q584 787 531 836Q465 812 428 779Q418 785 418 798Z" />
<glyph unicode="&#xc3;" glyph-name="Atilde" horiz-adv-x="592" d="M-17 -35Q-17 40 135 278Q74 283 27 283H-8Q11 335 96 335Q122 335 168 328Q245 444 324 546T450 692Q479 720 498 720Q519 720 551 688Q518 662 457 440T395 94Q395 14 432 14Q487 14 563 162L573
152Q542 70 496 20T400 -30Q322 -30 322 104Q322 168 339 253Q275 263 191 273Q93 93 17 -87Q-17 -68 -17 -35ZM217 319L290 302Q337 291 346 288Q388 485 466 657Q375 601 217 319ZM373 759Q408 805 456 805Q482 805 546 783T650 761Q665 761 680 764Q648 728
602 728Q574 728 513 747T419 767Q393 767 373 759Z" />
<glyph unicode="&#xc4;" glyph-name="Adieresis" horiz-adv-x="592" d="M-17 -35Q-17 40 135 278Q74 283 27 283H-8Q11 335 96 335Q122 335 168 328Q245 444 324 546T450 692Q479 720 498 720Q519 720 551 688Q518 662 457 440T395 94Q395 14 432 14Q487 14 563
162L573 152Q542 70 496 20T400 -30Q322 -30 322 104Q322 168 339 253Q275 263 191 273Q93 93 17 -87Q-17 -68 -17 -35ZM217 319L290 302Q337 291 346 288Q388 485 466 657Q375 601 217 319ZM411 804Q411 822 432 836T477 851Q507 851 507 823Q507 806 489 790T448
774Q411 774 411 804ZM555 783Q555 801 576 815T621 830Q651 830 651 802Q651 785 633 769T592 753Q555 753 555 783Z" />
<glyph unicode="&#xc5;" glyph-name="Aring" horiz-adv-x="592" d="M-17 -35Q-17 40 135 278Q74 283 27 283H-8Q11 335 96 335Q122 335 168 328Q245 444 324 546T450 692Q479 720 498 720Q519 720 551 688Q518 662 457 440T395 94Q395 14 432 14Q487 14 563 162L573
152Q542 70 496 20T400 -30Q322 -30 322 104Q322 168 339 253Q275 263 191 273Q93 93 17 -87Q-17 -68 -17 -35ZM217 319L290 302Q337 291 346 288Q388 485 466 657Q375 601 217 319ZM452 808Q452 846 489 883T574 920Q650 920 650 866Q650 828 612 791T524 754Q452
754 452 808ZM491 815Q491 800 502 787T533 774Q561 774 587 803T613 860Q613 875 602 886T569 897Q540 897 516 870T491 815Z" />
<glyph unicode="&#xc6;" glyph-name="AE" horiz-adv-x="747" d="M-17 -35Q-17 40 135 278Q74 283 27 283H-8Q11 335 96 335Q122 335 168 328Q276 490 371 605T498 720Q646 720 807 697Q794 661 637 661Q596 661 534 663Q496 588 450 415Q491 414 529 410T610 400T658
392Q645 356 488 356Q449 356 435 357Q395 187 395 94Q395 70 398 53Q437 47 541 38T670 23Q657 -13 500 -13Q389 -13 351 -9Q322 20 322 104Q322 168 339 253Q275 263 191 273Q93 93 17 -87Q-17 -68 -17 -35ZM217 319L290 302Q337 291 346 288Q388 485 466 657Q375
601 217 319Z" />
<glyph unicode="&#xc7;" glyph-name="Ccedilla" horiz-adv-x="562" d="M22 157Q22 253 60 355T156 537T289 668T433 719Q525 719 525 633Q525 571 487 496T409 420Q389 420 378 443Q415 485 450 545T485 644Q485 689 436 689Q367 689 288 600T155 380T102 140Q102
58 137 3T243 -53Q320 -53 397 10T515 162L529 152Q488 73 435 17L396 -43Q430 -19 463 -19Q508 -19 508 -61Q508 -104 473 -138T391 -173Q363 -173 347 -163T330 -137Q330 -120 352 -104Q362 -149 394 -149Q422 -149 449 -119T477 -62Q477 -37 460 -37Q445 -37
412 -57T375 -78Q369 -78 365 -72T361 -60Q361 -57 379 -32Q301 -87 219 -87Q120 -87 71 -16T22 157Z" />
<glyph unicode="&#xc8;" glyph-name="Egrave" horiz-adv-x="498" d="M-15 95Q-15 188 61 266T244 354Q168 417 168 512Q168 594 227 656T374 719Q429 719 458 691T488 611Q488 557 461 509T408 460Q386 460 371 492Q455 565 455 631Q455 696 384 696Q317 696 279
639T241 495Q241 394 299 344Q203 328 141 252T78 92Q78 35 109 -9T206 -53Q283 -53 360 10T478 162L492 152Q436 44 356 -21T180 -87Q92 -87 39 -35T-15 95ZM307 864Q310 895 329 895Q356 895 394 845T433 774Q433 755 419 748Q381 800 307 864Z" />
<glyph unicode="&#xc9;" glyph-name="Eacute" horiz-adv-x="498" d="M-15 95Q-15 188 61 266T244 354Q168 417 168 512Q168 594 227 656T374 719Q429 719 458 691T488 611Q488 557 461 509T408 460Q386 460 371 492Q455 565 455 631Q455 696 384 696Q317 696 279
639T241 495Q241 394 299 344Q203 328 141 252T78 92Q78 35 109 -9T206 -53Q283 -53 360 10T478 162L492 152Q436 44 356 -21T180 -87Q92 -87 39 -35T-15 95ZM415 774Q415 795 453 845T519 895Q538 895 541 864Q467 800 429 748Q415 755 415 774Z" />
<glyph unicode="&#xca;" glyph-name="Ecircumflex" horiz-adv-x="498" d="M-15 95Q-15 188 61 266T244 354Q168 417 168 512Q168 594 227 656T374 719Q429 719 458 691T488 611Q488 557 461 509T408 460Q386 460 371 492Q455 565 455 631Q455 696 384 696Q317
696 279 639T241 495Q241 394 299 344Q203 328 141 252T78 92Q78 35 109 -9T206 -53Q283 -53 360 10T478 162L492 152Q436 44 356 -21T180 -87Q92 -87 39 -35T-15 95ZM335 798Q335 825 380 855T449 886T506 847T539 775Q539 752 522 744Q501 787 448 836Q381 812
345 779Q335 785 335 798Z" />
<glyph unicode="&#xcb;" glyph-name="Edieresis" horiz-adv-x="498" d="M-15 95Q-15 188 61 266T244 354Q168 417 168 512Q168 594 227 656T374 719Q429 719 458 691T488 611Q488 557 461 509T408 460Q386 460 371 492Q455 565 455 631Q455 696 384 696Q317 696
279 639T241 495Q241 394 299 344Q203 328 141 252T78 92Q78 35 109 -9T206 -53Q283 -53 360 10T478 162L492 152Q436 44 356 -21T180 -87Q92 -87 39 -35T-15 95ZM313 804Q313 822 334 836T379 851Q409 851 409 823Q409 806 391 790T350 774Q313 774 313 804ZM457
783Q457 801 478 815T523 830Q553 830 553 802Q553 785 535 769T494 753Q457 753 457 783Z" />
<glyph unicode="&#xcc;" glyph-name="Igrave" horiz-adv-x="459" d="M-38 -88Q-35 -62 -22 -45T15 -21T64 -11T125 -8Q167 83 231 355T307 661Q174 658 82 641Q96 718 286 718Q407 718 548 697Q513 662 451 662Q373 662 342 661Q268 263 243 162Q208 24 159 -9Q188
-11 264 -19T376 -28Q333 -71 263 -71H202Q153 -71 136 -72T82 -74T18 -79T-38 -88ZM234 864Q237 895 256 895Q283 895 321 845T360 774Q360 755 346 748Q308 800 234 864Z" />
<glyph unicode="&#xcd;" glyph-name="Iacute" horiz-adv-x="459" d="M-38 -88Q-35 -62 -22 -45T15 -21T64 -11T125 -8Q167 83 231 355T307 661Q174 658 82 641Q96 718 286 718Q407 718 548 697Q513 662 451 662Q373 662 342 661Q268 263 243 162Q208 24 159 -9Q188
-11 264 -19T376 -28Q333 -71 263 -71H202Q153 -71 136 -72T82 -74T18 -79T-38 -88ZM342 774Q342 795 380 845T446 895Q465 895 468 864Q394 800 356 748Q342 755 342 774Z" />
<glyph unicode="&#xce;" glyph-name="Icircumflex" horiz-adv-x="459" d="M-38 -88Q-35 -62 -22 -45T15 -21T64 -11T125 -8Q167 83 231 355T307 661Q174 658 82 641Q96 718 286 718Q407 718 548 697Q513 662 451 662Q373 662 342 661Q268 263 243 162Q208 24 159
-9Q188 -11 264 -19T376 -28Q333 -71 263 -71H202Q153 -71 136 -72T82 -74T18 -79T-38 -88ZM264 798Q264 825 309 855T378 886T435 847T468 775Q468 752 451 744Q430 787 377 836Q310 812 274 779Q264 785 264 798Z" />
<glyph unicode="&#xcf;" glyph-name="Idieresis" horiz-adv-x="459" d="M-38 -88Q-35 -62 -22 -45T15 -21T64 -11T125 -8Q167 83 231 355T307 661Q174 658 82 641Q96 718 286 718Q407 718 548 697Q513 662 451 662Q373 662 342 661Q268 263 243 162Q208 24 159
-9Q188 -11 264 -19T376 -28Q333 -71 263 -71H202Q153 -71 136 -72T82 -74T18 -79T-38 -88ZM241 804Q241 822 262 836T307 851Q337 851 337 823Q337 806 319 790T278 774Q241 774 241 804ZM385 783Q385 801 406 815T451 830Q481 830 481 802Q481 785 463 769T422
753Q385 753 385 783Z" />
<glyph unicode="&#xd0;" glyph-name="Eth" horiz-adv-x="654" d="M32 274Q47 314 157 321Q198 451 230 538Q266 632 308 632Q322 632 336 622Q281 495 225 323Q302 323 389 314Q349 285 286 285H213Q153 97 120 -57Q144 -61 163 -61Q266 -61 361 16T513 214T570
457Q570 574 515 633T365 693Q267 693 202 637T136 498Q136 476 141 461Q81 461 81 517Q81 590 176 655T395 720Q522 720 583 645T644 446Q644 341 602 242T492 71T338 -44T164 -87Q89 -87 57 -42Q82 80 145 284Q98 284 32 274Z" />
<glyph unicode="&#xd1;" glyph-name="Ntilde" horiz-adv-x="640" d="M46 -87Q60 -33 86 52L160 294L258 619Q265 644 265 660Q265 683 250 683Q205 683 170 622T134 505Q134 485 139 470Q79 470 79 527Q79 593 148 656T279 720Q298 720 313 709T340 674T360 626T375
560T385 489T395 408Q416 221 439 72Q457 194 519 410T600 671Q607 687 625 703T663 720Q605 566 535 294T464 -87Q432 -87 413 -69T386 -6Q359 136 295 589Q161 108 126 17Q93 -74 61 -85Q54 -87 46 -87ZM310 759Q345 805 393 805Q419 805 483 783T587 761Q602
761 617 764Q585 728 539 728Q511 728 450 747T356 767Q330 767 310 759Z" />
<glyph unicode="&#xd2;" glyph-name="Ograve" horiz-adv-x="623" d="M21 161Q21 255 59 356T156 537T290 667T435 719Q472 719 495 707H484Q422 707 354 654T232 519T144 337T109 147Q109 60 142 4T243 -53Q332 -53 408 38T524 256T564 505Q564 556 553 599T519
643Q485 643 442 568T384 429Q336 440 336 478Q336 531 401 600T517 670Q541 670 559 652T585 602T598 541T602 477Q602 347 564 237T468 58T342 -49T213 -87Q127 -87 74 -19T21 161ZM437 864Q440 895 459 895Q486 895 524 845T563 774Q563 755 549 748Q511 800
437 864Z" />
<glyph unicode="&#xd3;" glyph-name="Oacute" horiz-adv-x="623" d="M21 161Q21 255 59 356T156 537T290 667T435 719Q472 719 495 707H484Q422 707 354 654T232 519T144 337T109 147Q109 60 142 4T243 -53Q332 -53 408 38T524 256T564 505Q564 556 553 599T519
643Q485 643 442 568T384 429Q336 440 336 478Q336 531 401 600T517 670Q541 670 559 652T585 602T598 541T602 477Q602 347 564 237T468 58T342 -49T213 -87Q127 -87 74 -19T21 161ZM564 774Q564 795 602 845T668 895Q687 895 690 864Q616 800 578 748Q564 755
564 774Z" />
<glyph unicode="&#xd4;" glyph-name="Ocircumflex" horiz-adv-x="623" d="M21 161Q21 255 59 356T156 537T290 667T435 719Q472 719 495 707H484Q422 707 354 654T232 519T144 337T109 147Q109 60 142 4T243 -53Q332 -53 408 38T524 256T564 505Q564 556 553 599T519
643Q485 643 442 568T384 429Q336 440 336 478Q336 531 401 600T517 670Q541 670 559 652T585 602T598 541T602 477Q602 347 564 237T468 58T342 -49T213 -87Q127 -87 74 -19T21 161ZM417 798Q417 825 462 855T531 886T588 847T621 775Q621 752 604 744Q583 787
530 836Q463 812 427 779Q417 785 417 798Z" />
<glyph unicode="&#xd5;" glyph-name="Otilde" horiz-adv-x="623" d="M21 161Q21 255 59 356T156 537T290 667T435 719Q472 719 495 707H484Q422 707 354 654T232 519T144 337T109 147Q109 60 142 4T243 -53Q332 -53 408 38T524 256T564 505Q564 556 553 599T519
643Q485 643 442 568T384 429Q336 440 336 478Q336 531 401 600T517 670Q541 670 559 652T585 602T598 541T602 477Q602 347 564 237T468 58T342 -49T213 -87Q127 -87 74 -19T21 161ZM376 759Q411 805 459 805Q485 805 549 783T653 761Q668 761 683 764Q651 728
605 728Q577 728 516 747T422 767Q396 767 376 759Z" />
<glyph unicode="&#xd6;" glyph-name="Odieresis" horiz-adv-x="623" d="M21 161Q21 255 59 356T156 537T290 667T435 719Q472 719 495 707H484Q422 707 354 654T232 519T144 337T109 147Q109 60 142 4T243 -53Q332 -53 408 38T524 256T564 505Q564 556 553 599T519
643Q485 643 442 568T384 429Q336 440 336 478Q336 531 401 600T517 670Q541 670 559 652T585 602T598 541T602 477Q602 347 564 237T468 58T342 -49T213 -87Q127 -87 74 -19T21 161ZM390 804Q390 822 411 836T456 851Q486 851 486 823Q486 806 468 790T427 774Q390
774 390 804ZM534 783Q534 801 555 815T600 830Q630 830 630 802Q630 785 612 769T571 753Q534 753 534 783Z" />
<glyph unicode="&#xd7;" glyph-name="multiply" horiz-adv-x="377" d="M48 43Q48 83 125 167Q56 241 56 282Q56 292 60 300Q97 249 151 193Q216 258 276 305Q269 257 224 212L179 166L232 113Q276 67 284 20Q224 67 159 132L151 139Q94 82 52 25Q48 33 48 43Z" />
<glyph unicode="&#xd8;" glyph-name="Oslash" horiz-adv-x="623" d="M21 161Q21 255 59 356T156 537T290 667T435 719Q472 719 495 707H484Q422 707 354 654T232 519T144 337T109 147Q109 62 137 12Q269 176 550 608Q538 643 519 643Q485 643 442 568T384 429Q336
440 336 478Q336 531 401 600T517 670Q549 670 569 638L573 643Q580 654 603 662T648 671Q659 671 664 670L594 566Q602 526 602 477Q602 347 564 237T468 58T342 -49T213 -87Q170 -87 132 -68Q86 -101 46 -101Q40 -101 30 -99Q52 -84 92 -39Q21 27 21 161ZM174
-32Q205 -53 243 -53Q332 -53 408 38T524 256T564 505V521L239 46Q204 -3 174 -32Z" />
<glyph unicode="&#xd9;" glyph-name="Ugrave" horiz-adv-x="706" d="M25 539Q25 604 83 662T216 720Q319 720 319 599Q319 524 258 329T196 65Q196 15 216 -16T280 -47Q319 -47 354 -21T415 49T458 136T487 224L528 391Q544 453 570 542T619 675T661 720Q681 720
711 688Q681 667 604 419T527 42Q527 -25 545 -50T607 -75Q572 -99 541 -99Q505 -99 483 -68T460 7Q460 38 469 98Q384 -87 253 -87Q191 -87 157 -49T123 49Q123 111 185 318T248 604Q248 692 192 692Q143 692 115 635T86 519Q86 489 94 470Q25 470 25 539ZM421
864Q424 895 443 895Q470 895 508 845T547 774Q547 755 533 748Q495 800 421 864Z" />
<glyph unicode="&#xda;" glyph-name="Uacute" horiz-adv-x="706" d="M25 539Q25 604 83 662T216 720Q319 720 319 599Q319 524 258 329T196 65Q196 15 216 -16T280 -47Q319 -47 354 -21T415 49T458 136T487 224L528 391Q544 453 570 542T619 675T661 720Q681 720
711 688Q681 667 604 419T527 42Q527 -25 545 -50T607 -75Q572 -99 541 -99Q505 -99 483 -68T460 7Q460 38 469 98Q384 -87 253 -87Q191 -87 157 -49T123 49Q123 111 185 318T248 604Q248 692 192 692Q143 692 115 635T86 519Q86 489 94 470Q25 470 25 539ZM463
774Q463 795 501 845T567 895Q586 895 589 864Q515 800 477 748Q463 755 463 774Z" />
<glyph unicode="&#xdb;" glyph-name="Ucircumflex" horiz-adv-x="706" d="M25 539Q25 604 83 662T216 720Q319 720 319 599Q319 524 258 329T196 65Q196 15 216 -16T280 -47Q319 -47 354 -21T415 49T458 136T487 224L528 391Q544 453 570 542T619 675T661 720Q681
720 711 688Q681 667 604 419T527 42Q527 -25 545 -50T607 -75Q572 -99 541 -99Q505 -99 483 -68T460 7Q460 38 469 98Q384 -87 253 -87Q191 -87 157 -49T123 49Q123 111 185 318T248 604Q248 692 192 692Q143 692 115 635T86 519Q86 489 94 470Q25 470 25 539ZM385
798Q385 825 430 855T499 886T556 847T589 775Q589 752 572 744Q551 787 498 836Q431 812 395 779Q385 785 385 798Z" />
<glyph unicode="&#xdc;" glyph-name="Udieresis" horiz-adv-x="706" d="M25 539Q25 604 83 662T216 720Q319 720 319 599Q319 524 258 329T196 65Q196 15 216 -16T280 -47Q319 -47 354 -21T415 49T458 136T487 224L528 391Q544 453 570 542T619 675T661 720Q681
720 711 688Q681 667 604 419T527 42Q527 -25 545 -50T607 -75Q572 -99 541 -99Q505 -99 483 -68T460 7Q460 38 469 98Q384 -87 253 -87Q191 -87 157 -49T123 49Q123 111 185 318T248 604Q248 692 192 692Q143 692 115 635T86 519Q86 489 94 470Q25 470 25 539ZM383
804Q383 822 404 836T449 851Q479 851 479 823Q479 806 461 790T420 774Q383 774 383 804ZM527 783Q527 801 548 815T593 830Q623 830 623 802Q623 785 605 769T564 753Q527 753 527 783Z" />
<glyph unicode="&#xdd;" glyph-name="Yacute" horiz-adv-x="666" d="M23 539Q23 604 81 662T214 720Q267 720 292 690T318 619Q318 586 285 465T251 287Q251 191 321 191Q384 191 438 263T533 440Q601 720 653 720Q679 720 709 688Q659 608 633 529T544 194L524
118Q517 90 502 45T473 -28T437 -90T389 -142T330 -174T255 -187Q195 -187 156 -162T117 -93Q117 -38 177 -18Q169 -45 169 -72Q169 -114 191 -138T256 -162Q402 -162 465 121L483 211L507 326Q416 151 290 151Q181 151 181 270Q181 324 215 447T249 614Q249 692
192 692Q142 692 113 635T84 519Q84 489 92 470Q23 470 23 539ZM472 774Q472 795 510 845T576 895Q595 895 598 864Q524 800 486 748Q472 755 472 774Z" />
<glyph unicode="&#xde;" glyph-name="Thorn" horiz-adv-x="508" d="M31 -37Q31 -24 45 18Q155 364 232 555Q196 549 161 535T106 510T82 498Q75 498 63 508T51 525Q161 572 241 578Q245 587 253 610T268 648T284 680T305 707T330 716T356 708Q328 653 300 579Q392
571 460 521T529 387Q529 341 509 304T456 242T384 201T303 175T228 161T168 156L135 38L100 -87Q73 -87 52 -73T31 -37ZM173 175Q228 181 277 198T369 242T437 311T462 404Q462 478 414 516T292 558Q244 427 173 175Z" />
<glyph unicode="&#xdf;" glyph-name="germandbls" horiz-adv-x="427" d="M-43 -115Q-29 -96 -13 0L21 213Q41 330 70 446T153 641T280 720Q326 720 355 691T385 610Q385 542 339 483T230 384Q218 376 218 371T231 360Q286 336 323 271T361 147Q361 66 301 -10T173
-87Q140 -87 122 -48T103 44Q103 92 119 127T164 163Q175 163 180 162Q165 154 155 110T144 19Q144 -67 174 -67Q213 -67 251 7T290 161Q290 216 269 267T212 346Q192 361 192 372Q192 385 216 406Q251 439 272 463T312 527T331 611Q331 693 272 693Q217 693 178
615T117 422T76 191T27 -13T-43 -115Z" />
<glyph unicode="&#xe0;" glyph-name="agrave" horiz-adv-x="436" d="M-26 36Q-26 95 15 167T123 291T251 343Q290 343 316 322T342 268Q342 225 293 225Q298 243 298 260Q298 316 249 316Q205 316 156 266T75 149T43 33Q43 -6 70 -6Q88 -6 112 11T156 49T203 105T244
160L280 212Q320 205 320 187Q320 179 291 127T262 48Q262 31 270 18T296 4Q325 4 369 45T456 162L466 152Q435 72 379 21T268 -30Q233 -30 215 -10T196 40Q196 52 199 69Q154 9 119 -19T48 -47Q15 -47 -5 -26T-26 36ZM213 526Q216 557 235 557Q262 557 300 507T339
436Q339 417 325 410Q287 462 213 526Z" />
<glyph unicode="&#xe1;" glyph-name="aacute" horiz-adv-x="436" d="M-26 36Q-26 95 15 167T123 291T251 343Q290 343 316 322T342 268Q342 225 293 225Q298 243 298 260Q298 316 249 316Q205 316 156 266T75 149T43 33Q43 -6 70 -6Q88 -6 112 11T156 49T203 105T244
160L280 212Q320 205 320 187Q320 179 291 127T262 48Q262 31 270 18T296 4Q325 4 369 45T456 162L466 152Q435 72 379 21T268 -30Q233 -30 215 -10T196 40Q196 52 199 69Q154 9 119 -19T48 -47Q15 -47 -5 -26T-26 36ZM284 443Q284 464 322 514T388 564Q407 564
410 533Q336 469 298 417Q284 424 284 443Z" />
<glyph unicode="&#xe2;" glyph-name="acircumflex" horiz-adv-x="436" d="M-26 36Q-26 95 15 167T123 291T251 343Q290 343 316 322T342 268Q342 225 293 225Q298 243 298 260Q298 316 249 316Q205 316 156 266T75 149T43 33Q43 -6 70 -6Q88 -6 112 11T156 49T203
105T244 160L280 212Q320 205 320 187Q320 179 291 127T262 48Q262 31 270 18T296 4Q325 4 369 45T456 162L466 152Q435 72 379 21T268 -30Q233 -30 215 -10T196 40Q196 52 199 69Q154 9 119 -19T48 -47Q15 -47 -5 -26T-26 36ZM222 460Q222 487 267 517T336 548T393
509T426 437Q426 414 409 406Q388 449 335 498Q268 474 232 441Q222 447 222 460Z" />
<glyph unicode="&#xe3;" glyph-name="atilde" horiz-adv-x="436" d="M-26 36Q-26 95 15 167T123 291T251 343Q290 343 316 322T342 268Q342 225 293 225Q298 243 298 260Q298 316 249 316Q205 316 156 266T75 149T43 33Q43 -6 70 -6Q88 -6 112 11T156 49T203 105T244
160L280 212Q320 205 320 187Q320 179 291 127T262 48Q262 31 270 18T296 4Q325 4 369 45T456 162L466 152Q435 72 379 21T268 -30Q233 -30 215 -10T196 40Q196 52 199 69Q154 9 119 -19T48 -47Q15 -47 -5 -26T-26 36ZM140 428Q175 474 223 474Q249 474 313 452T417
430Q432 430 447 433Q415 397 369 397Q341 397 280 416T186 436Q160 436 140 428Z" />
<glyph unicode="&#xe4;" glyph-name="adieresis" horiz-adv-x="436" d="M-26 36Q-26 95 15 167T123 291T251 343Q290 343 316 322T342 268Q342 225 293 225Q298 243 298 260Q298 316 249 316Q205 316 156 266T75 149T43 33Q43 -6 70 -6Q88 -6 112 11T156 49T203
105T244 160L280 212Q320 205 320 187Q320 179 291 127T262 48Q262 31 270 18T296 4Q325 4 369 45T456 162L466 152Q435 72 379 21T268 -30Q233 -30 215 -10T196 40Q196 52 199 69Q154 9 119 -19T48 -47Q15 -47 -5 -26T-26 36ZM154 466Q154 484 175 498T220 513Q250
513 250 485Q250 468 232 452T191 436Q154 436 154 466ZM298 445Q298 463 319 477T364 492Q394 492 394 464Q394 447 376 431T335 415Q298 415 298 445Z" />
<glyph unicode="&#xe5;" glyph-name="aring" horiz-adv-x="436" d="M-26 36Q-26 95 15 167T123 291T251 343Q290 343 316 322T342 268Q342 225 293 225Q298 243 298 260Q298 316 249 316Q205 316 156 266T75 149T43 33Q43 -6 70 -6Q88 -6 112 11T156 49T203 105T244
160L280 212Q320 205 320 187Q320 179 291 127T262 48Q262 31 270 18T296 4Q325 4 369 45T456 162L466 152Q435 72 379 21T268 -30Q233 -30 215 -10T196 40Q196 52 199 69Q154 9 119 -19T48 -47Q15 -47 -5 -26T-26 36ZM216 451Q216 490 253 526T338 563Q414 563
414 509Q414 471 376 434T288 397Q216 397 216 451ZM255 458Q255 443 266 430T297 417Q325 417 351 446T377 503Q377 518 366 529T333 540Q304 540 280 513T255 458Z" />
<glyph unicode="&#xe6;" glyph-name="ae" horiz-adv-x="543" d="M-26 36Q-26 95 15 167T123 291T251 343Q305 343 320 301Q387 360 451 360Q513 360 513 299Q513 226 435 170T265 105Q261 88 261 69Q261 -15 340 -15Q401 -15 463 36T564 162L576 153Q536 64 465
10T319 -44Q262 -44 231 -14T197 66Q153 8 118 -19T48 -47Q15 -47 -5 -26T-26 36ZM43 33Q43 -6 70 -6Q116 -6 199 99Q206 143 232 191T296 278Q287 316 249 316Q205 316 156 266T75 149T43 33ZM270 124Q340 149 404 199T469 306Q469 329 448 329Q401 329 346 264T270
124Z" />
<glyph unicode="&#xe7;" glyph-name="ccedilla" horiz-adv-x="323" d="M-5 72Q-5 171 65 254T214 338Q252 338 268 317T285 264Q285 234 272 213T235 191Q218 191 206 206Q221 213 232 237T243 285Q243 310 221 310Q169 310 113 225T57 65Q57 -18 130 -18Q191
-18 250 32T342 163L355 153Q322 68 257 9L223 -43Q257 -19 290 -19Q335 -19 335 -61Q335 -104 300 -138T218 -173Q190 -173 174 -163T157 -137Q157 -120 179 -104Q189 -149 221 -149Q249 -149 276 -119T304 -62Q304 -37 287 -37Q272 -37 239 -57T202 -78Q196 -78
192 -72T188 -60Q188 -57 211 -24Q157 -56 107 -56T26 -23T-5 72Z" />
<glyph unicode="&#xe8;" glyph-name="egrave" horiz-adv-x="333" d="M-14 72Q-14 164 70 262T240 360Q302 360 302 299Q302 226 224 170T54 105Q50 88 50 69Q50 -15 129 -15Q190 -15 252 36T353 162L365 153Q325 64 254 10T108 -44Q49 -44 18 -12T-14 72ZM59 124Q129
149 193 199T258 306Q258 329 237 329Q190 329 135 264T59 124ZM172 534Q175 565 194 565Q221 565 259 515T298 444Q298 425 284 418Q246 470 172 534Z" />
<glyph unicode="&#xe9;" glyph-name="eacute" horiz-adv-x="333" d="M-14 72Q-14 164 70 262T240 360Q302 360 302 299Q302 226 224 170T54 105Q50 88 50 69Q50 -15 129 -15Q190 -15 252 36T353 162L365 153Q325 64 254 10T108 -44Q49 -44 18 -12T-14 72ZM59 124Q129
149 193 199T258 306Q258 329 237 329Q190 329 135 264T59 124ZM292 455Q292 476 330 526T396 576Q415 576 418 545Q344 481 306 429Q292 436 292 455Z" />
<glyph unicode="&#xea;" glyph-name="ecircumflex" horiz-adv-x="333" d="M-14 72Q-14 164 70 262T240 360Q302 360 302 299Q302 226 224 170T54 105Q50 88 50 69Q50 -15 129 -15Q190 -15 252 36T353 162L365 153Q325 64 254 10T108 -44Q49 -44 18 -12T-14 72ZM59
124Q129 149 193 199T258 306Q258 329 237 329Q190 329 135 264T59 124ZM182 460Q182 487 227 517T296 548T353 509T386 437Q386 414 369 406Q348 449 295 498Q228 474 192 441Q182 447 182 460Z" />
<glyph unicode="&#xeb;" glyph-name="edieresis" horiz-adv-x="333" d="M-14 72Q-14 164 70 262T240 360Q302 360 302 299Q302 226 224 170T54 105Q50 88 50 69Q50 -15 129 -15Q190 -15 252 36T353 162L365 153Q325 64 254 10T108 -44Q49 -44 18 -12T-14 72ZM59
124Q129 149 193 199T258 306Q258 329 237 329Q190 329 135 264T59 124ZM137 466Q137 484 158 498T203 513Q233 513 233 485Q233 468 215 452T174 436Q137 436 137 466ZM281 445Q281 463 302 477T347 492Q377 492 377 464Q377 447 359 431T318 415Q281 415 281
445Z" />
<glyph unicode="&#xec;" glyph-name="igrave" horiz-adv-x="241" d="M-5 58Q-5 97 16 163T72 284T139 339Q161 339 161 317Q161 305 135 262T83 165T57 69Q57 34 68 22T106 9Q184 9 260 162L269 152Q241 68 187 21T72 -26Q35 -26 15 -3T-5 58ZM90 531Q93 562 112
562Q139 562 177 512T216 441Q216 422 202 415Q164 467 90 531Z" />
<glyph unicode="&#xed;" glyph-name="iacute" horiz-adv-x="241" d="M-5 58Q-5 97 16 163T72 284T139 339Q161 339 161 317Q161 305 135 262T83 165T57 69Q57 34 68 22T106 9Q184 9 260 162L269 152Q241 68 187 21T72 -26Q35 -26 15 -3T-5 58ZM164 436Q164 457
202 507T268 557Q287 557 290 526Q216 462 178 410Q164 417 164 436Z" />
<glyph unicode="&#xee;" glyph-name="icircumflex" horiz-adv-x="241" d="M-5 58Q-5 97 16 163T72 284T139 339Q161 339 161 317Q161 305 135 262T83 165T57 69Q57 34 68 22T106 9Q184 9 260 162L269 152Q241 68 187 21T72 -26Q35 -26 15 -3T-5 58ZM100 460Q100
487 145 517T214 548T271 509T304 437Q304 414 287 406Q266 449 213 498Q146 474 110 441Q100 447 100 460Z" />
<glyph unicode="&#xef;" glyph-name="idieresis" horiz-adv-x="241" d="M-5 58Q-5 97 16 163T72 284T139 339Q161 339 161 317Q161 305 135 262T83 165T57 69Q57 34 68 22T106 9Q184 9 260 162L269 152Q241 68 187 21T72 -26Q35 -26 15 -3T-5 58ZM59 466Q59 484
80 498T125 513Q155 513 155 485Q155 468 137 452T96 436Q59 436 59 466ZM203 445Q203 463 224 477T269 492Q299 492 299 464Q299 447 281 431T240 415Q203 415 203 445Z" />
<glyph unicode="&#xf0;" glyph-name="eth" horiz-adv-x="473" d="M-16 54Q-16 109 24 181T129 306T253 360Q297 360 297 329Q297 325 295 315Q284 330 257 330Q207 330 158 280T82 168T54 66Q54 44 63 31T90 18Q134 18 199 100T307 293Q352 410 352 489Q352 512
348 532Q279 522 233 509Q233 528 250 540T286 556T341 566Q320 642 254 700Q269 719 293 719Q335 719 366 677T412 574Q478 578 503 586Q488 562 472 555T418 542Q422 519 422 495Q422 424 366 266T310 57Q310 14 338 14Q371 14 416 55T492 162L504 153Q475 77
419 26T310 -26Q276 -26 260 -4T244 49Q244 83 263 156Q212 72 158 21T59 -30Q30 -30 7 -9T-16 54Z" />
<glyph unicode="&#xf1;" glyph-name="ntilde" horiz-adv-x="466" d="M-38 7Q-38 10 -21 54T15 156T33 253Q52 274 79 274T106 248Q106 214 74 116Q189 292 282 292Q318 292 337 266T356 202Q356 169 336 118T315 44Q315 6 345 6Q407 6 485 162L496 149Q424 -20
323 -20Q289 -20 271 -3T253 44Q253 64 267 111T282 183Q282 232 242 232Q218 232 191 213T142 172T93 108T52 46L15 -15Q-22 -15 -38 7ZM98 421Q133 467 181 467Q207 467 271 445T375 423Q390 423 405 426Q373 390 327 390Q299 390 238 409T144 429Q118 429 98
421Z" />
<glyph unicode="&#xf2;" glyph-name="ograve" horiz-adv-x="365" d="M-10 59Q-10 123 26 186T105 250Q114 250 126 245Q107 229 81 166T55 66Q55 9 91 9Q135 9 198 89Q170 112 155 149T139 226Q139 278 165 315T237 352Q306 352 306 275Q306 197 239 97Q257 87
277 87Q306 87 337 104T384 159L396 149Q377 105 342 84T270 63Q243 63 222 73Q142 -32 69 -32Q28 -32 9 -7T-10 59ZM182 223Q182 155 216 115Q274 201 274 269Q274 325 244 325Q222 325 202 295T182 223ZM187 526Q190 557 209 557Q236 557 274 507T313 436Q313
417 299 410Q261 462 187 526Z" />
<glyph unicode="&#xf3;" glyph-name="oacute" horiz-adv-x="365" d="M-10 59Q-10 123 26 186T105 250Q114 250 126 245Q107 229 81 166T55 66Q55 9 91 9Q135 9 198 89Q170 112 155 149T139 226Q139 278 165 315T237 352Q306 352 306 275Q306 197 239 97Q257 87
277 87Q306 87 337 104T384 159L396 149Q377 105 342 84T270 63Q243 63 222 73Q142 -32 69 -32Q28 -32 9 -7T-10 59ZM182 223Q182 155 216 115Q274 201 274 269Q274 325 244 325Q222 325 202 295T182 223ZM334 440Q334 461 372 511T438 561Q457 561 460 530Q386
466 348 414Q334 421 334 440Z" />
<glyph unicode="&#xf4;" glyph-name="ocircumflex" horiz-adv-x="365" d="M-10 59Q-10 123 26 186T105 250Q114 250 126 245Q107 229 81 166T55 66Q55 9 91 9Q135 9 198 89Q170 112 155 149T139 226Q139 278 165 315T237 352Q306 352 306 275Q306 197 239 97Q257
87 277 87Q306 87 337 104T384 159L396 149Q377 105 342 84T270 63Q243 63 222 73Q142 -32 69 -32Q28 -32 9 -7T-10 59ZM177 460Q177 487 222 517T291 548T348 509T381 437Q381 414 364 406Q343 449 290 498Q223 474 187 441Q177 447 177 460ZM182 223Q182 155
216 115Q274 201 274 269Q274 325 244 325Q222 325 202 295T182 223Z" />
<glyph unicode="&#xf5;" glyph-name="otilde" horiz-adv-x="365" d="M-10 59Q-10 123 26 186T105 250Q114 250 126 245Q107 229 81 166T55 66Q55 9 91 9Q135 9 198 89Q170 112 155 149T139 226Q139 278 165 315T237 352Q306 352 306 275Q306 197 239 97Q257 87
277 87Q306 87 337 104T384 159L396 149Q377 105 342 84T270 63Q243 63 222 73Q142 -32 69 -32Q28 -32 9 -7T-10 59ZM132 421Q167 467 215 467Q241 467 305 445T409 423Q424 423 439 426Q407 390 361 390Q333 390 272 409T178 429Q152 429 132 421ZM182 223Q182
155 216 115Q274 201 274 269Q274 325 244 325Q222 325 202 295T182 223Z" />
<glyph unicode="&#xf6;" glyph-name="odieresis" horiz-adv-x="365" d="M-10 59Q-10 123 26 186T105 250Q114 250 126 245Q107 229 81 166T55 66Q55 9 91 9Q135 9 198 89Q170 112 155 149T139 226Q139 278 165 315T237 352Q306 352 306 275Q306 197 239 97Q257
87 277 87Q306 87 337 104T384 159L396 149Q377 105 342 84T270 63Q243 63 222 73Q142 -32 69 -32Q28 -32 9 -7T-10 59ZM130 466Q130 484 151 498T196 513Q226 513 226 485Q226 468 208 452T167 436Q130 436 130 466ZM182 223Q182 155 216 115Q274 201 274 269Q274
325 244 325Q222 325 202 295T182 223ZM274 445Q274 463 295 477T340 492Q370 492 370 464Q370 447 352 431T311 415Q274 415 274 445Z" />
<glyph unicode="&#xf7;" glyph-name="divide" horiz-adv-x="460" d="M25 124Q43 173 214 173Q295 173 382 164Q359 148 322 142T206 135Q96 135 25 124ZM139 17Q139 33 158 45T197 58Q223 58 223 34Q223 19 207 5T171 -10Q139 -10 139 17ZM199 267Q199 283 218
295T257 308Q283 308 283 284Q283 269 267 255T231 240Q199 240 199 267Z" />
<glyph unicode="&#xf8;" glyph-name="oslash" horiz-adv-x="404" d="M-65 -63Q-38 -50 5 -3Q-12 20 -12 55Q-12 109 23 178T116 299T230 352Q248 352 260 345L276 372Q285 387 321 387Q323 387 327 387T334 386Q331 383 326 375L312 353Q304 339 296 327Q314 315
314 293Q314 284 295 241T275 167Q275 130 296 107T345 84Q387 84 424 160L437 150Q400 64 337 64Q308 64 283 82T243 134Q210 58 165 13T68 -32Q47 -32 31 -24Q-19 -64 -52 -64Q-61 -64 -65 -63ZM52 51Q147 168 239 312Q188 309 143 262T75 158T52 62V51ZM74 14Q82
11 90 11Q124 11 165 55T233 165Q227 188 227 218Q123 62 79 19L74 14Z" />
<glyph unicode="&#xf9;" glyph-name="ugrave" horiz-adv-x="438" d="M0 71Q0 128 33 213T88 298Q107 298 125 278Q104 245 81 184T58 77Q58 10 94 10Q107 10 121 20T151 49T179 88T208 137L234 186L258 234Q271 263 276 271Q324 262 324 245Q324 242 307 205T274
118T257 40Q257 0 290 0Q324 0 373 44T457 162L470 153Q438 73 381 22T269 -30Q199 -30 199 44Q199 64 206 94Q136 -30 75 -30Q42 -30 21 -1T0 71ZM164 526Q167 557 186 557Q213 557 251 507T290 436Q290 417 276 410Q238 462 164 526Z" />
<glyph unicode="&#xfa;" glyph-name="uacute" horiz-adv-x="438" d="M0 71Q0 128 33 213T88 298Q107 298 125 278Q104 245 81 184T58 77Q58 10 94 10Q107 10 121 20T151 49T179 88T208 137L234 186L258 234Q271 263 276 271Q324 262 324 245Q324 242 307 205T274
118T257 40Q257 0 290 0Q324 0 373 44T457 162L470 153Q438 73 381 22T269 -30Q199 -30 199 44Q199 64 206 94Q136 -30 75 -30Q42 -30 21 -1T0 71ZM210 396Q210 417 248 467T314 517Q333 517 336 486Q262 422 224 370Q210 377 210 396Z" />
<glyph unicode="&#xfb;" glyph-name="ucircumflex" horiz-adv-x="438" d="M0 71Q0 128 33 213T88 298Q107 298 125 278Q104 245 81 184T58 77Q58 10 94 10Q107 10 121 20T151 49T179 88T208 137L234 186L258 234Q271 263 276 271Q324 262 324 245Q324 242 307
205T274 118T257 40Q257 0 290 0Q324 0 373 44T457 162L470 153Q438 73 381 22T269 -30Q199 -30 199 44Q199 64 206 94Q136 -30 75 -30Q42 -30 21 -1T0 71ZM174 460Q174 487 219 517T288 548T345 509T378 437Q378 414 361 406Q340 449 287 498Q220 474 184 441Q174
447 174 460Z" />
<glyph unicode="&#xfc;" glyph-name="udieresis" horiz-adv-x="438" d="M0 71Q0 128 33 213T88 298Q107 298 125 278Q104 245 81 184T58 77Q58 10 94 10Q107 10 121 20T151 49T179 88T208 137L234 186L258 234Q271 263 276 271Q324 262 324 245Q324 242 307 205T274
118T257 40Q257 0 290 0Q324 0 373 44T457 162L470 153Q438 73 381 22T269 -30Q199 -30 199 44Q199 64 206 94Q136 -30 75 -30Q42 -30 21 -1T0 71ZM126 466Q126 484 147 498T192 513Q222 513 222 485Q222 468 204 452T163 436Q126 436 126 466ZM270 445Q270 463
291 477T336 492Q366 492 366 464Q366 447 348 431T307 415Q270 415 270 445Z" />
<glyph unicode="&#xfd;" glyph-name="yacute" horiz-adv-x="389" d="M-20 -252T-20 -227T-8 -180T17 -142T63 -107T114 -77L174 -46Q204 31 230 137Q152 10 84 10Q52 10 28 31T4 91Q4 146 37 227T92 309Q101 309 118 302T136 286Q116 257 93 193T70 90Q70 50 106
50Q133 50 169 87T239 178Q244 195 249 224Q260 275 300 275Q309 275 321 272Q321 245 299 161T243 -8Q356 36 408 162L421 152Q384 35 232 -35Q132 -280 43 -280Q16 -280 -2 -266ZM11 -218Q11 -228 18 -238T38 -248Q49 -248 67 -232T112 -174T164 -70Q124 -91
104 -103T58 -135T22 -174T11 -218ZM244 396Q244 417 282 467T348 517Q367 517 370 486Q296 422 258 370Q244 377 244 396Z" />
<glyph unicode="&#xfe;" glyph-name="thorn" horiz-adv-x="391" d="M-94 -242Q-91 -230 -71 -159L-42 -61Q-34 -33 -16 41T13 173T38 320T64 506Q65 516 68 519T83 523Q107 523 119 510T131 477Q131 462 114 351T86 192Q117 252 161 295T259 339Q303 339 331 308T360
225Q360 139 291 57T124 -26Q99 -26 83 -21T66 -8Q66 -3 91 -3Q169 -3 232 67T295 216Q295 250 281 271T238 293Q191 293 144 240T72 132Q-16 -241 -51 -275Q-56 -280 -63 -280Q-74 -280 -84 -264T-94 -242Z" />
<glyph unicode="&#xff;" glyph-name="ydieresis" horiz-adv-x="389" d="M-20 -252T-20 -227T-8 -180T17 -142T63 -107T114 -77L174 -46Q204 31 230 137Q152 10 84 10Q52 10 28 31T4 91Q4 146 37 227T92 309Q101 309 118 302T136 286Q116 257 93 193T70 90Q70 50
106 50Q133 50 169 87T239 178Q244 195 249 224Q260 275 300 275Q309 275 321 272Q321 245 299 161T243 -8Q356 36 408 162L421 152Q384 35 232 -35Q132 -280 43 -280Q16 -280 -2 -266ZM11 -218Q11 -228 18 -238T38 -248Q49 -248 67 -232T112 -174T164 -70Q124
-91 104 -103T58 -135T22 -174T11 -218ZM126 466Q126 484 147 498T192 513Q222 513 222 485Q222 468 204 452T163 436Q126 436 126 466ZM270 445Q270 463 291 477T336 492Q366 492 366 464Q366 447 348 431T307 415Q270 415 270 445Z" />
<glyph unicode="&#x2013;" glyph-name="endash" horiz-adv-x="677" d="M25 114Q29 161 101 178T307 196Q393 196 479 187T614 178Q562 133 483 133Q432 133 365 133T274 132T211 132T159 130T120 127T75 122T25 114Z" />
<glyph unicode="&#x2014;" glyph-name="emdash" horiz-adv-x="838" d="M35 114Q40 161 130 178T387 196Q495 196 603 187T771 178Q706 133 608 133Q544 133 460 133T346 132T268 132T203 130T153 127T97 121L35 114Z" />
<glyph unicode="&#x2018;" glyph-name="quoteleft" horiz-adv-x="144" d="M126 692Q126 703 133 711T151 720Q155 703 179 667T212 613Q214 607 214 604Q214 587 195 576Q189 585 168 614T137 661T126 692Z" />
<glyph unicode="&#x2019;" glyph-name="quoteright" horiz-adv-x="125" d="M124 604Q124 607 126 613Q134 631 158 667T187 720Q197 720 204 712T212 692Q212 680 202 662T170 614T143 576Q124 587 124 604Z" />
<glyph unicode="&#x201a;" glyph-name="quotesinglbase" horiz-adv-x="196" d="M-10 -51Q-10 -18 10 19T51 56Q61 56 68 48T76 28Q67 19 59 9T46 -10T35 -30T25 -49L15 -69Q8 -83 7 -88Q-10 -78 -10 -51Z" />
<glyph unicode="&#x201c;" glyph-name="quotedblleft" horiz-adv-x="254" d="M126 692Q126 703 133 711T151 720Q155 703 179 667T212 613Q214 607 214 604Q214 587 195 576Q189 585 168 614T137 661T126 692ZM236 692Q236 703 243 711T261 720Q265 703 289 667T322
613Q324 607 324 604Q324 587 305 576Q299 585 278 614T247 661T236 692Z" />
<glyph unicode="&#x201d;" glyph-name="quotedblright" horiz-adv-x="235" d="M124 604Q124 607 126 613Q134 631 158 667T187 720Q197 720 204 712T212 692Q212 680 202 662T170 614T143 576Q124 587 124 604ZM234 604Q234 607 236 613Q244 631 268 667T297 720Q307
720 314 712T322 692Q322 680 312 662T280 614T253 576Q234 587 234 604Z" />
<glyph unicode="&#x201e;" glyph-name="quotedblbase" horiz-adv-x="306" d="M-10 -51Q-10 -18 10 19T51 56Q61 56 68 48T76 28Q67 19 59 9T46 -10T35 -30T25 -49L15 -69Q8 -83 7 -88Q-10 -78 -10 -51ZM100 -51Q100 -18 120 19T161 56Q171 56 178 48T186 28Q177
19 169 9T156 -10T145 -31L135 -49Q132 -55 126 -69T117 -88Q100 -78 100 -51Z" />
<glyph unicode="&#x2022;" glyph-name="bullet" horiz-adv-x="242" d="M40 156Q40 180 62 202T110 224Q128 224 143 211T158 180Q158 159 135 139T85 118Q66 118 53 127T40 156Z" />
<glyph unicode="&#x2039;" glyph-name="guilsinglleft" horiz-adv-x="285" d="M6 158Q55 179 109 225T196 316Q201 308 201 294Q201 235 32 147L74 117Q88 107 119 92T194 60Q180 44 165 44Q129 44 72 86T6 158Z" />
<glyph unicode="&#x203a;" glyph-name="guilsinglright" horiz-adv-x="304" d="M51 294Q51 308 56 316Q88 271 142 225T246 158Q238 128 181 86T87 44Q72 44 58 60Q102 77 132 92T177 117L220 147Q51 235 51 294Z" />
</font>
</defs>
</svg>
